<svg xmlns="http://www.w3.org/2000/svg" xmlns:xlink="http://www.w3.org/1999/xlink" xmlns:inkscape="http://www.inkscape.org/namespaces/inkscape" version="1.1" width="388.83689" height="278.62443" viewBox="0 0 388.83689 278.62443">
<defs>
<clipPath id="clip_1">
<path transform="matrix(1,0,0,-1,0,278.62443)" d="M62.559377 64.85625H307.19938V268.79704H62.559377Z"/>
</clipPath>
<clipPath id="clip_2">
<path transform="matrix(1,0,0,-1,0,278.62443)" d="M62.559377 64.85625H307.19938V268.79704H62.559377Z"/>
</clipPath>
<clipPath id="clip_3">
<path transform="matrix(1,0,0,-1,0,278.62443)" d="M62.559377 64.85625H307.19938V268.79704H62.559377Z"/>
</clipPath>
<clipPath id="clip_4">
<path transform="matrix(1,0,0,-1,0,278.62443)" d="M62.559377 64.85625H307.19938V268.79704H62.559377Z"/>
</clipPath>
<clipPath id="clip_5">
<path transform="matrix(1,0,0,-1,0,278.62443)" d="M62.559377 64.85625H307.19938V268.79704H62.559377Z"/>
</clipPath>
<clipPath id="clip_6">
<path transform="matrix(1,0,0,-1,0,278.62443)" d="M62.559377 64.85625H307.19938V268.79704H62.559377Z"/>
</clipPath>
<clipPath id="clip_7">
<path transform="matrix(1,0,0,-1,0,278.62443)" d="M62.559377 64.85625H307.19938V268.79704H62.559377Z"/>
</clipPath>
<clipPath id="clip_8">
<path transform="matrix(1,0,0,-1,0,278.62443)" d="M62.559377 64.85625H307.19938V268.79704H62.559377Z"/>
</clipPath>
<clipPath id="clip_9">
<path transform="matrix(1,0,0,-1,0,278.62443)" d="M62.559377 64.85625H307.19938V268.79704H62.559377Z"/>
</clipPath>
<clipPath id="clip_10">
<path transform="matrix(1,0,0,-1,0,278.62443)" d="M62.559377 64.85625H307.19938V268.79704H62.559377Z"/>
</clipPath>
<clipPath id="clip_11">
<path transform="matrix(1,0,0,-1,0,278.62443)" d="M62.559377 64.85625H307.19938V268.79704H62.559377Z"/>
</clipPath>
<clipPath id="clip_12">
<path transform="matrix(1,0,0,-1,0,278.62443)" d="M62.559377 64.85625H307.19938V268.79704H62.559377Z"/>
</clipPath>
<clipPath id="clip_13">
<path transform="matrix(1,0,0,-1,0,278.62443)" d="M62.559377 64.85625H307.19938V268.79704H62.559377Z"/>
</clipPath>
<clipPath id="clip_14">
<path transform="matrix(1,0,0,-1,0,278.62443)" d="M62.559377 64.85625H307.19938V268.79704H62.559377Z"/>
</clipPath>
<clipPath id="clip_15">
<path transform="matrix(1,0,0,-1,0,278.62443)" d="M62.559377 64.85625H307.19938V268.79704H62.559377Z"/>
</clipPath>
<clipPath id="clip_16">
<path transform="matrix(1,0,0,-1,0,278.62443)" d="M62.559377 64.85625H307.19938V268.79704H62.559377Z"/>
</clipPath>
<clipPath id="clip_17">
<path transform="matrix(1,0,0,-1,0,278.62443)" d="M62.559377 64.85625H307.19938V268.79704H62.559377Z"/>
</clipPath>
<clipPath id="clip_18">
<path transform="matrix(1,0,0,-1,0,278.62443)" d="M62.559377 64.85625H307.19938V268.79704H62.559377Z"/>
</clipPath>
<clipPath id="clip_19">
<path transform="matrix(1,0,0,-1,0,278.62443)" d="M62.559377 64.85625H307.19938V268.79704H62.559377Z"/>
</clipPath>
<clipPath id="clip_20">
<path transform="matrix(1,0,0,-1,0,278.62443)" d="M62.559377 64.85625H307.19938V268.79704H62.559377Z"/>
</clipPath>
<clipPath id="clip_21">
<path transform="matrix(1,0,0,-1,0,278.62443)" d="M62.559377 64.85625H307.19938V268.79704H62.559377Z"/>
</clipPath>
<clipPath id="clip_22">
<path transform="matrix(1,0,0,-1,0,278.62443)" d="M62.559377 64.85625H307.19938V268.79704H62.559377Z"/>
</clipPath>
<clipPath id="clip_23">
<path transform="matrix(1,0,0,-1,0,278.62443)" d="M62.559377 64.85625H307.19938V268.79704H62.559377Z"/>
</clipPath>
<clipPath id="clip_24">
<path transform="matrix(1,0,0,-1,0,278.62443)" d="M62.559377 64.85625H307.19938V268.79704H62.559377Z"/>
</clipPath>
<clipPath id="clip_25">
<path transform="matrix(1,0,0,-1,0,278.62443)" d="M62.559377 64.85625H307.19938V268.79704H62.559377Z"/>
</clipPath>
<clipPath id="clip_26">
<path transform="matrix(1,0,0,-1,0,278.62443)" d="M62.559377 64.85625H307.19938V268.79704H62.559377Z"/>
</clipPath>
<clipPath id="clip_27">
<path transform="matrix(1,0,0,-1,0,278.62443)" d="M62.559377 64.85625H307.19938V268.79704H62.559377Z"/>
</clipPath>
<clipPath id="clip_28">
<path transform="matrix(1,0,0,-1,0,278.62443)" d="M62.559377 64.85625H307.19938V268.79704H62.559377Z"/>
</clipPath>
<clipPath id="clip_29">
<path transform="matrix(1,0,0,-1,0,278.62443)" d="M62.559377 64.85625H307.19938V268.79704H62.559377Z"/>
</clipPath>
<clipPath id="clip_30">
<path transform="matrix(1,0,0,-1,0,278.62443)" d="M62.559377 64.85625H307.19938V268.79704H62.559377Z"/>
</clipPath>
<clipPath id="clip_31">
<path transform="matrix(1,0,0,-1,0,278.62443)" d="M62.559377 64.85625H307.19938V268.79704H62.559377Z"/>
</clipPath>
<clipPath id="clip_32">
<path transform="matrix(1,0,0,-1,0,278.62443)" d="M62.559377 64.85625H307.19938V268.79704H62.559377Z"/>
</clipPath>
<clipPath id="clip_33">
<path transform="matrix(1,0,0,-1,0,278.62443)" d="M62.559377 64.85625H307.19938V268.79704H62.559377Z"/>
</clipPath>
<clipPath id="clip_34">
<path transform="matrix(1,0,0,-1,0,278.62443)" d="M62.559377 64.85625H307.19938V268.79704H62.559377Z"/>
</clipPath>
<clipPath id="clip_35">
<path transform="matrix(1,0,0,-1,0,278.62443)" d="M62.559377 64.85625H307.19938V268.79704H62.559377Z"/>
</clipPath>
<clipPath id="clip_36">
<path transform="matrix(1,0,0,-1,0,278.62443)" d="M62.559377 64.85625H307.19938V268.79704H62.559377Z"/>
</clipPath>
<clipPath id="clip_37">
<path transform="matrix(1,0,0,-1,0,278.62443)" d="M62.559377 64.85625H307.19938V268.79704H62.559377Z"/>
</clipPath>
<clipPath id="clip_38">
<path transform="matrix(1,0,0,-1,0,278.62443)" d="M62.559377 64.85625H307.19938V268.79704H62.559377Z"/>
</clipPath>
<clipPath id="clip_39">
<path transform="matrix(1,0,0,-1,0,278.62443)" d="M62.559377 64.85625H307.19938V268.79704H62.559377Z"/>
</clipPath>
<clipPath id="clip_40">
<path transform="matrix(1,0,0,-1,0,278.62443)" d="M62.559377 64.85625H307.19938V268.79704H62.559377Z"/>
</clipPath>
<clipPath id="clip_41">
<path transform="matrix(1,0,0,-1,0,278.62443)" d="M62.559377 64.85625H307.19938V268.79704H62.559377Z"/>
</clipPath>
<clipPath id="clip_42">
<path transform="matrix(1,0,0,-1,0,278.62443)" d="M62.559377 64.85625H307.19938V268.79704H62.559377Z"/>
</clipPath>
<clipPath id="clip_43">
<path transform="matrix(1,0,0,-1,0,278.62443)" d="M62.559377 64.85625H307.19938V268.79704H62.559377Z"/>
</clipPath>
<clipPath id="clip_44">
<path transform="matrix(1,0,0,-1,0,278.62443)" d="M62.559377 64.85625H307.19938V268.79704H62.559377Z"/>
</clipPath>
<clipPath id="clip_45">
<path transform="matrix(1,0,0,-1,0,278.62443)" d="M62.559377 64.85625H307.19938V268.79704H62.559377Z"/>
</clipPath>
<clipPath id="clip_46">
<path transform="matrix(1,0,0,-1,0,278.62443)" d="M62.559377 64.85625H307.19938V268.79704H62.559377Z"/>
</clipPath>
<clipPath id="clip_47">
<path transform="matrix(1,0,0,-1,0,278.62443)" d="M62.559377 64.85625H307.19938V268.79704H62.559377Z"/>
</clipPath>
<clipPath id="clip_48">
<path transform="matrix(1,0,0,-1,0,278.62443)" d="M62.559377 64.85625H307.19938V268.79704H62.559377Z"/>
</clipPath>
<clipPath id="clip_49">
<path transform="matrix(1,0,0,-1,0,278.62443)" d="M62.559377 64.85625H307.19938V268.79704H62.559377Z"/>
</clipPath>
<clipPath id="clip_50">
<path transform="matrix(1,0,0,-1,0,278.62443)" d="M62.559377 64.85625H307.19938V268.79704H62.559377Z"/>
</clipPath>
<clipPath id="clip_51">
<path transform="matrix(.014,0,0,-.014,64.7,229.50255)" d="M-1021-463H1794V1233H-1021Z"/>
</clipPath>
<clipPath id="clip_52">
<path transform="matrix(1,0,0,-1,0,278.62443)" d="M62.559377 64.85625H307.19938V268.79704H62.559377Z"/>
</clipPath>
<clipPath id="clip_53">
<path transform="matrix(.014,0,0,-.014,166.7209,229.50255)" d="M-1021-463H1794V1233H-1021Z"/>
</clipPath>
<clipPath id="clip_54">
<path transform="matrix(1,0,0,-1,0,278.62443)" d="M62.559377 64.85625H307.19938V268.79704H62.559377Z"/>
</clipPath>
<clipPath id="clip_55">
<path transform="matrix(.014,0,0,-.014,268.74183,229.67598)" d="M-1021-463H1794V1233H-1021Z"/>
</clipPath>
<clipPath id="clip_56">
<path transform="matrix(1,0,0,-1,0,278.62443)" d="M62.559377 64.85625H307.19938V268.79704H62.559377Z"/>
</clipPath>
<clipPath id="clip_57">
<path transform="matrix(1,0,0,-1,0,278.62443)" d="M62.559377 64.85625H307.19938V268.79704H62.559377Z"/>
</clipPath>
<clipPath id="clip_58">
<path transform="matrix(1,0,0,-1,0,278.62443)" d="M62.559377 64.85625H307.19938V268.79704H62.559377Z"/>
</clipPath>
<clipPath id="clip_59">
<path transform="matrix(1,0,0,-1,0,278.62443)" d="M62.559377 64.85625H307.19938V268.79704H62.559377Z"/>
</clipPath>
<clipPath id="clip_60">
<path transform="matrix(1,0,0,-1,0,278.62443)" d="M62.559377 64.85625H307.19938V268.79704H62.559377Z"/>
</clipPath>
<clipPath id="clip_61">
<path transform="matrix(1,0,0,-1,0,278.62443)" d="M62.559377 64.85625H307.19938V268.79704H62.559377Z"/>
</clipPath>
<clipPath id="clip_62">
<path transform="matrix(1,0,0,-1,0,278.62443)" d="M62.559377 64.85625H307.19938V268.79704H62.559377Z"/>
</clipPath>
<clipPath id="clip_63">
<path transform="matrix(1,0,0,-1,0,278.62443)" d="M62.559377 64.85625H307.19938V268.79704H62.559377Z"/>
</clipPath>
<clipPath id="clip_64">
<path transform="matrix(1,0,0,-1,0,278.62443)" d="M62.559377 64.85625H307.19938V268.79704H62.559377Z"/>
</clipPath>
<clipPath id="clip_65">
<path transform="matrix(1,0,0,-1,0,278.62443)" d="M62.559377 64.85625H307.19938V268.79704H62.559377Z"/>
</clipPath>
<clipPath id="clip_66">
<path transform="matrix(1,0,0,-1,0,278.62443)" d="M62.559377 64.85625H307.19938V268.79704H62.559377Z"/>
</clipPath>
<clipPath id="clip_67">
<path transform="matrix(1,0,0,-1,0,278.62443)" d="M62.559377 64.85625H307.19938V268.79704H62.559377Z"/>
</clipPath>
<clipPath id="clip_68">
<path transform="matrix(1,0,0,-1,0,278.62443)" d="M62.559377 64.85625H307.19938V268.79704H62.559377Z"/>
</clipPath>
<clipPath id="clip_69">
<path transform="matrix(1,0,0,-1,0,278.62443)" d="M62.559377 64.85625H307.19938V268.79704H62.559377Z"/>
</clipPath>
<clipPath id="clip_70">
<path transform="matrix(1,0,0,-1,0,278.62443)" d="M62.559377 64.85625H307.19938V268.79704H62.559377Z"/>
</clipPath>
<clipPath id="clip_71">
<path transform="matrix(1,0,0,-1,0,278.62443)" d="M62.559377 64.85625H307.19938V268.79704H62.559377Z"/>
</clipPath>
<clipPath id="clip_72">
<path transform="matrix(1,0,0,-1,0,278.62443)" d="M62.559377 64.85625H307.19938V268.79704H62.559377Z"/>
</clipPath>
<clipPath id="clip_73">
<path transform="matrix(.026,0,0,-.026,157.87938,265.97129)" d="M-1021-463H1794V1233H-1021Z"/>
</clipPath>
<clipPath id="clip_74">
<path transform="matrix(1,0,0,-1,0,278.62443)" d="M62.559377 64.85625H307.19938V268.79704H62.559377Z"/>
</clipPath>
<clipPath id="clip_75">
<path transform="matrix(1,0,0,-1,0,278.62443)" d="M62.559377 64.85625H307.19938V268.79704H62.559377Z"/>
</clipPath>
<clipPath id="clip_76">
<path transform="matrix(1,0,0,-1,0,278.62443)" d="M62.559377 64.85625H307.19938V268.79704H62.559377Z"/>
</clipPath>
<clipPath id="clip_77">
<path transform="matrix(1,0,0,-1,0,278.62443)" d="M62.559377 64.85625H307.19938V268.79704H62.559377Z"/>
</clipPath>
<clipPath id="clip_78">
<path transform="matrix(1,0,0,-1,0,278.62443)" d="M62.559377 64.85625H307.19938V268.79704H62.559377Z"/>
</clipPath>
<clipPath id="clip_79">
<path transform="matrix(1,0,0,-1,0,278.62443)" d="M62.559377 64.85625H307.19938V268.79704H62.559377Z"/>
</clipPath>
</defs>
<path transform="matrix(1,0,0,-1,0,278.62443)" d="M0 0H388.83689V278.62443H0Z" fill="#ffffff"/>
<path transform="matrix(1,0,0,-1,0,278.62443)" d="M62.559377 64.85625H307.19938V268.79704H62.559377Z" fill="#ffffff"/>
<g clip-path="url(#clip_1)">
<g>
<path transform="matrix(1,0,0,-1,0,278.62443)" d="M88.70086 64.85625H93.03596 88.70086Z" fill="#8c96c6" fill-opacity=".5"/>
<path transform="matrix(1,0,0,-1,0,278.62443)" stroke-width="1" stroke-linecap="butt" stroke-miterlimit="10" stroke-linejoin="miter" fill="none" stroke="#cd5c5c" stroke-opacity=".5" d="M88.70086 64.85625H93.03596 88.70086Z"/>
</g>
</g>
<g clip-path="url(#clip_2)">
<g>
<path transform="matrix(1,0,0,-1,0,278.62443)" d="M93.03596 64.85625H97.37105 93.03596Z" fill="#8c96c6" fill-opacity=".5"/>
<path transform="matrix(1,0,0,-1,0,278.62443)" stroke-width="1" stroke-linecap="butt" stroke-miterlimit="10" stroke-linejoin="miter" fill="none" stroke="#cd5c5c" stroke-opacity=".5" d="M93.03596 64.85625H97.37105 93.03596Z"/>
</g>
</g>
<g clip-path="url(#clip_3)">
<g>
<path transform="matrix(1,0,0,-1,0,278.62443)" d="M97.37105 64.85625H101.70615V74.80458H97.37105Z" fill="#8c96c6" fill-opacity=".5"/>
<path transform="matrix(1,0,0,-1,0,278.62443)" stroke-width="1" stroke-linecap="butt" stroke-miterlimit="10" stroke-linejoin="miter" fill="none" stroke="#cd5c5c" stroke-opacity=".5" d="M97.37105 64.85625H101.70615V74.80458H97.37105Z"/>
</g>
</g>
<g clip-path="url(#clip_4)">
<g>
<path transform="matrix(1,0,0,-1,0,278.62443)" d="M101.70615 64.85625H106.041248V74.80458H101.70615Z" fill="#8c96c6" fill-opacity=".5"/>
<path transform="matrix(1,0,0,-1,0,278.62443)" stroke-width="1" stroke-linecap="butt" stroke-miterlimit="10" stroke-linejoin="miter" fill="none" stroke="#cd5c5c" stroke-opacity=".5" d="M101.70615 64.85625H106.041248V74.80458H101.70615Z"/>
</g>
</g>
<g clip-path="url(#clip_5)">
<g>
<path transform="matrix(1,0,0,-1,0,278.62443)" d="M106.041248 64.85625H110.376338 106.041248Z" fill="#8c96c6" fill-opacity=".5"/>
<path transform="matrix(1,0,0,-1,0,278.62443)" stroke-width="1" stroke-linecap="butt" stroke-miterlimit="10" stroke-linejoin="miter" fill="none" stroke="#cd5c5c" stroke-opacity=".5" d="M106.041248 64.85625H110.376338 106.041248Z"/>
</g>
</g>
<g clip-path="url(#clip_6)">
<g>
<path transform="matrix(1,0,0,-1,0,278.62443)" d="M110.376338 64.85625H114.71143 110.376338Z" fill="#8c96c6" fill-opacity=".5"/>
<path transform="matrix(1,0,0,-1,0,278.62443)" stroke-width="1" stroke-linecap="butt" stroke-miterlimit="10" stroke-linejoin="miter" fill="none" stroke="#cd5c5c" stroke-opacity=".5" d="M110.376338 64.85625H114.71143 110.376338Z"/>
</g>
</g>
<g clip-path="url(#clip_7)">
<g>
<path transform="matrix(1,0,0,-1,0,278.62443)" d="M114.71143 64.85625H119.046527V74.80458H114.71143Z" fill="#8c96c6" fill-opacity=".5"/>
<path transform="matrix(1,0,0,-1,0,278.62443)" stroke-width="1" stroke-linecap="butt" stroke-miterlimit="10" stroke-linejoin="miter" fill="none" stroke="#cd5c5c" stroke-opacity=".5" d="M114.71143 64.85625H119.046527V74.80458H114.71143Z"/>
</g>
</g>
<g clip-path="url(#clip_8)">
<g>
<path transform="matrix(1,0,0,-1,0,278.62443)" d="M119.046527 64.85625H123.38162V84.752918H119.046527Z" fill="#8c96c6" fill-opacity=".5"/>
<path transform="matrix(1,0,0,-1,0,278.62443)" stroke-width="1" stroke-linecap="butt" stroke-miterlimit="10" stroke-linejoin="miter" fill="none" stroke="#cd5c5c" stroke-opacity=".5" d="M119.046527 64.85625H123.38162V84.752918H119.046527Z"/>
</g>
</g>
<g clip-path="url(#clip_9)">
<g>
<path transform="matrix(1,0,0,-1,0,278.62443)" d="M123.38162 64.85625H127.71672 123.38162Z" fill="#8c96c6" fill-opacity=".5"/>
<path transform="matrix(1,0,0,-1,0,278.62443)" stroke-width="1" stroke-linecap="butt" stroke-miterlimit="10" stroke-linejoin="miter" fill="none" stroke="#cd5c5c" stroke-opacity=".5" d="M123.38162 64.85625H127.71672 123.38162Z"/>
</g>
</g>
<g clip-path="url(#clip_10)">
<g>
<path transform="matrix(1,0,0,-1,0,278.62443)" d="M127.71672 64.85625H132.05182 127.71672Z" fill="#8c96c6" fill-opacity=".5"/>
<path transform="matrix(1,0,0,-1,0,278.62443)" stroke-width="1" stroke-linecap="butt" stroke-miterlimit="10" stroke-linejoin="miter" fill="none" stroke="#cd5c5c" stroke-opacity=".5" d="M127.71672 64.85625H132.05182 127.71672Z"/>
</g>
</g>
<g clip-path="url(#clip_11)">
<g>
<path transform="matrix(1,0,0,-1,0,278.62443)" d="M132.05182 64.85625H136.3869V74.80458H132.05182Z" fill="#8c96c6" fill-opacity=".5"/>
<path transform="matrix(1,0,0,-1,0,278.62443)" stroke-width="1" stroke-linecap="butt" stroke-miterlimit="10" stroke-linejoin="miter" fill="none" stroke="#cd5c5c" stroke-opacity=".5" d="M132.05182 64.85625H136.3869V74.80458H132.05182Z"/>
</g>
</g>
<g clip-path="url(#clip_12)">
<g>
<path transform="matrix(1,0,0,-1,0,278.62443)" d="M136.3869 64.85625H140.722 136.3869Z" fill="#8c96c6" fill-opacity=".5"/>
<path transform="matrix(1,0,0,-1,0,278.62443)" stroke-width="1" stroke-linecap="butt" stroke-miterlimit="10" stroke-linejoin="miter" fill="none" stroke="#cd5c5c" stroke-opacity=".5" d="M136.3869 64.85625H140.722 136.3869Z"/>
</g>
</g>
<g clip-path="url(#clip_13)">
<g>
<path transform="matrix(1,0,0,-1,0,278.62443)" d="M140.722 64.85625H145.0571V74.80458H140.722Z" fill="#8c96c6" fill-opacity=".5"/>
<path transform="matrix(1,0,0,-1,0,278.62443)" stroke-width="1" stroke-linecap="butt" stroke-miterlimit="10" stroke-linejoin="miter" fill="none" stroke="#cd5c5c" stroke-opacity=".5" d="M140.722 64.85625H145.0571V74.80458H140.722Z"/>
</g>
</g>
<g clip-path="url(#clip_14)">
<g>
<path transform="matrix(1,0,0,-1,0,278.62443)" d="M145.0571 64.85625H149.3922 145.0571Z" fill="#8c96c6" fill-opacity=".5"/>
<path transform="matrix(1,0,0,-1,0,278.62443)" stroke-width="1" stroke-linecap="butt" stroke-miterlimit="10" stroke-linejoin="miter" fill="none" stroke="#cd5c5c" stroke-opacity=".5" d="M145.0571 64.85625H149.3922 145.0571Z"/>
</g>
</g>
<g clip-path="url(#clip_15)">
<g>
<path transform="matrix(1,0,0,-1,0,278.62443)" d="M149.3922 64.85625H153.7273 149.3922Z" fill="#8c96c6" fill-opacity=".5"/>
<path transform="matrix(1,0,0,-1,0,278.62443)" stroke-width="1" stroke-linecap="butt" stroke-miterlimit="10" stroke-linejoin="miter" fill="none" stroke="#cd5c5c" stroke-opacity=".5" d="M149.3922 64.85625H153.7273 149.3922Z"/>
</g>
</g>
<g clip-path="url(#clip_16)">
<g>
<path transform="matrix(1,0,0,-1,0,278.62443)" d="M153.7273 64.85625H158.06238 153.7273Z" fill="#8c96c6" fill-opacity=".5"/>
<path transform="matrix(1,0,0,-1,0,278.62443)" stroke-width="1" stroke-linecap="butt" stroke-miterlimit="10" stroke-linejoin="miter" fill="none" stroke="#cd5c5c" stroke-opacity=".5" d="M153.7273 64.85625H158.06238 153.7273Z"/>
</g>
</g>
<g clip-path="url(#clip_17)">
<g>
<path transform="matrix(1,0,0,-1,0,278.62443)" d="M158.06238 64.85625H162.39748V74.80458H158.06238Z" fill="#8c96c6" fill-opacity=".5"/>
<path transform="matrix(1,0,0,-1,0,278.62443)" stroke-width="1" stroke-linecap="butt" stroke-miterlimit="10" stroke-linejoin="miter" fill="none" stroke="#cd5c5c" stroke-opacity=".5" d="M158.06238 64.85625H162.39748V74.80458H158.06238Z"/>
</g>
</g>
<g clip-path="url(#clip_18)">
<g>
<path transform="matrix(1,0,0,-1,0,278.62443)" d="M162.39748 64.85625H166.73258V74.80458H162.39748Z" fill="#8c96c6" fill-opacity=".5"/>
<path transform="matrix(1,0,0,-1,0,278.62443)" stroke-width="1" stroke-linecap="butt" stroke-miterlimit="10" stroke-linejoin="miter" fill="none" stroke="#cd5c5c" stroke-opacity=".5" d="M162.39748 64.85625H166.73258V74.80458H162.39748Z"/>
</g>
</g>
<g clip-path="url(#clip_19)">
<g>
<path transform="matrix(1,0,0,-1,0,278.62443)" d="M166.73258 64.85625H171.06768V94.70124H166.73258Z" fill="#8c96c6" fill-opacity=".5"/>
<path transform="matrix(1,0,0,-1,0,278.62443)" stroke-width="1" stroke-linecap="butt" stroke-miterlimit="10" stroke-linejoin="miter" fill="none" stroke="#cd5c5c" stroke-opacity=".5" d="M166.73258 64.85625H171.06768V94.70124H166.73258Z"/>
</g>
</g>
<g clip-path="url(#clip_20)">
<g>
<path transform="matrix(1,0,0,-1,0,278.62443)" d="M171.06768 64.85625H175.40277 171.06768Z" fill="#8c96c6" fill-opacity=".5"/>
<path transform="matrix(1,0,0,-1,0,278.62443)" stroke-width="1" stroke-linecap="butt" stroke-miterlimit="10" stroke-linejoin="miter" fill="none" stroke="#cd5c5c" stroke-opacity=".5" d="M171.06768 64.85625H175.40277 171.06768Z"/>
</g>
</g>
<g clip-path="url(#clip_21)">
<g>
<path transform="matrix(1,0,0,-1,0,278.62443)" d="M175.40277 64.85625H179.73786V74.80458H175.40277Z" fill="#8c96c6" fill-opacity=".5"/>
<path transform="matrix(1,0,0,-1,0,278.62443)" stroke-width="1" stroke-linecap="butt" stroke-miterlimit="10" stroke-linejoin="miter" fill="none" stroke="#cd5c5c" stroke-opacity=".5" d="M175.40277 64.85625H179.73786V74.80458H175.40277Z"/>
</g>
</g>
<g clip-path="url(#clip_22)">
<g>
<path transform="matrix(1,0,0,-1,0,278.62443)" d="M179.73786 64.85625H184.07295V84.752918H179.73786Z" fill="#8c96c6" fill-opacity=".5"/>
<path transform="matrix(1,0,0,-1,0,278.62443)" stroke-width="1" stroke-linecap="butt" stroke-miterlimit="10" stroke-linejoin="miter" fill="none" stroke="#cd5c5c" stroke-opacity=".5" d="M179.73786 64.85625H184.07295V84.752918H179.73786Z"/>
</g>
</g>
<g clip-path="url(#clip_23)">
<g>
<path transform="matrix(1,0,0,-1,0,278.62443)" d="M184.07295 64.85625H188.40805 184.07295Z" fill="#8c96c6" fill-opacity=".5"/>
<path transform="matrix(1,0,0,-1,0,278.62443)" stroke-width="1" stroke-linecap="butt" stroke-miterlimit="10" stroke-linejoin="miter" fill="none" stroke="#cd5c5c" stroke-opacity=".5" d="M184.07295 64.85625H188.40805 184.07295Z"/>
</g>
</g>
<g clip-path="url(#clip_24)">
<g>
<path transform="matrix(1,0,0,-1,0,278.62443)" d="M188.40805 64.85625H192.74315V94.70124H188.40805Z" fill="#8c96c6" fill-opacity=".5"/>
<path transform="matrix(1,0,0,-1,0,278.62443)" stroke-width="1" stroke-linecap="butt" stroke-miterlimit="10" stroke-linejoin="miter" fill="none" stroke="#cd5c5c" stroke-opacity=".5" d="M188.40805 64.85625H192.74315V94.70124H188.40805Z"/>
</g>
</g>
<g clip-path="url(#clip_25)">
<g>
<path transform="matrix(1,0,0,-1,0,278.62443)" d="M192.74315 64.85625H197.07825V74.80458H192.74315Z" fill="#8c96c6" fill-opacity=".5"/>
<path transform="matrix(1,0,0,-1,0,278.62443)" stroke-width="1" stroke-linecap="butt" stroke-miterlimit="10" stroke-linejoin="miter" fill="none" stroke="#cd5c5c" stroke-opacity=".5" d="M192.74315 64.85625H197.07825V74.80458H192.74315Z"/>
</g>
</g>
<g clip-path="url(#clip_26)">
<g>
<path transform="matrix(1,0,0,-1,0,278.62443)" d="M197.07825 64.85625H201.41333V84.752918H197.07825Z" fill="#8c96c6" fill-opacity=".5"/>
<path transform="matrix(1,0,0,-1,0,278.62443)" stroke-width="1" stroke-linecap="butt" stroke-miterlimit="10" stroke-linejoin="miter" fill="none" stroke="#cd5c5c" stroke-opacity=".5" d="M197.07825 64.85625H201.41333V84.752918H197.07825Z"/>
</g>
</g>
<g clip-path="url(#clip_27)">
<g>
<path transform="matrix(1,0,0,-1,0,278.62443)" d="M201.41333 64.85625H205.74843V94.70124H201.41333Z" fill="#8c96c6" fill-opacity=".5"/>
<path transform="matrix(1,0,0,-1,0,278.62443)" stroke-width="1" stroke-linecap="butt" stroke-miterlimit="10" stroke-linejoin="miter" fill="none" stroke="#cd5c5c" stroke-opacity=".5" d="M201.41333 64.85625H205.74843V94.70124H201.41333Z"/>
</g>
</g>
<g clip-path="url(#clip_28)">
<g>
<path transform="matrix(1,0,0,-1,0,278.62443)" d="M205.74843 64.85625H210.08353V104.649578H205.74843Z" fill="#8c96c6" fill-opacity=".5"/>
<path transform="matrix(1,0,0,-1,0,278.62443)" stroke-width="1" stroke-linecap="butt" stroke-miterlimit="10" stroke-linejoin="miter" fill="none" stroke="#cd5c5c" stroke-opacity=".5" d="M205.74843 64.85625H210.08353V104.649578H205.74843Z"/>
</g>
</g>
<g clip-path="url(#clip_29)">
<g>
<path transform="matrix(1,0,0,-1,0,278.62443)" d="M210.08353 64.85625H214.41863V74.80458H210.08353Z" fill="#8c96c6" fill-opacity=".5"/>
<path transform="matrix(1,0,0,-1,0,278.62443)" stroke-width="1" stroke-linecap="butt" stroke-miterlimit="10" stroke-linejoin="miter" fill="none" stroke="#cd5c5c" stroke-opacity=".5" d="M210.08353 64.85625H214.41863V74.80458H210.08353Z"/>
</g>
</g>
<g clip-path="url(#clip_30)">
<g>
<path transform="matrix(1,0,0,-1,0,278.62443)" d="M214.41863 64.85625H218.75373V94.70124H214.41863Z" fill="#8c96c6" fill-opacity=".5"/>
<path transform="matrix(1,0,0,-1,0,278.62443)" stroke-width="1" stroke-linecap="butt" stroke-miterlimit="10" stroke-linejoin="miter" fill="none" stroke="#cd5c5c" stroke-opacity=".5" d="M214.41863 64.85625H218.75373V94.70124H214.41863Z"/>
</g>
</g>
<g clip-path="url(#clip_31)">
<g>
<path transform="matrix(1,0,0,-1,0,278.62443)" d="M218.75373 64.85625H223.0888V84.752918H218.75373Z" fill="#8c96c6" fill-opacity=".5"/>
<path transform="matrix(1,0,0,-1,0,278.62443)" stroke-width="1" stroke-linecap="butt" stroke-miterlimit="10" stroke-linejoin="miter" fill="none" stroke="#cd5c5c" stroke-opacity=".5" d="M218.75373 64.85625H223.0888V84.752918H218.75373Z"/>
</g>
</g>
<g clip-path="url(#clip_32)">
<g>
<path transform="matrix(1,0,0,-1,0,278.62443)" d="M223.0888 64.85625H227.4239V94.70124H223.0888Z" fill="#8c96c6" fill-opacity=".5"/>
<path transform="matrix(1,0,0,-1,0,278.62443)" stroke-width="1" stroke-linecap="butt" stroke-miterlimit="10" stroke-linejoin="miter" fill="none" stroke="#cd5c5c" stroke-opacity=".5" d="M223.0888 64.85625H227.4239V94.70124H223.0888Z"/>
</g>
</g>
<g clip-path="url(#clip_33)">
<g>
<path transform="matrix(1,0,0,-1,0,278.62443)" d="M227.4239 64.85625H231.759V104.649578H227.4239Z" fill="#8c96c6" fill-opacity=".5"/>
<path transform="matrix(1,0,0,-1,0,278.62443)" stroke-width="1" stroke-linecap="butt" stroke-miterlimit="10" stroke-linejoin="miter" fill="none" stroke="#cd5c5c" stroke-opacity=".5" d="M227.4239 64.85625H231.759V104.649578H227.4239Z"/>
</g>
</g>
<g clip-path="url(#clip_34)">
<g>
<path transform="matrix(1,0,0,-1,0,278.62443)" d="M231.759 64.85625H236.0941V114.5979H231.759Z" fill="#8c96c6" fill-opacity=".5"/>
<path transform="matrix(1,0,0,-1,0,278.62443)" stroke-width="1" stroke-linecap="butt" stroke-miterlimit="10" stroke-linejoin="miter" fill="none" stroke="#cd5c5c" stroke-opacity=".5" d="M231.759 64.85625H236.0941V114.5979H231.759Z"/>
</g>
</g>
<g clip-path="url(#clip_35)">
<g>
<path transform="matrix(1,0,0,-1,0,278.62443)" d="M236.0941 64.85625H240.4292V124.546237H236.0941Z" fill="#8c96c6" fill-opacity=".5"/>
<path transform="matrix(1,0,0,-1,0,278.62443)" stroke-width="1" stroke-linecap="butt" stroke-miterlimit="10" stroke-linejoin="miter" fill="none" stroke="#cd5c5c" stroke-opacity=".5" d="M236.0941 64.85625H240.4292V124.546237H236.0941Z"/>
</g>
</g>
<g clip-path="url(#clip_36)">
<g>
<path transform="matrix(1,0,0,-1,0,278.62443)" d="M240.4292 64.85625H244.76428V104.649578H240.4292Z" fill="#8c96c6" fill-opacity=".5"/>
<path transform="matrix(1,0,0,-1,0,278.62443)" stroke-width="1" stroke-linecap="butt" stroke-miterlimit="10" stroke-linejoin="miter" fill="none" stroke="#cd5c5c" stroke-opacity=".5" d="M240.4292 64.85625H244.76428V104.649578H240.4292Z"/>
</g>
</g>
<g clip-path="url(#clip_37)">
<g>
<path transform="matrix(1,0,0,-1,0,278.62443)" d="M244.76428 64.85625H249.09938V164.33956H244.76428Z" fill="#8c96c6" fill-opacity=".5"/>
<path transform="matrix(1,0,0,-1,0,278.62443)" stroke-width="1" stroke-linecap="butt" stroke-miterlimit="10" stroke-linejoin="miter" fill="none" stroke="#cd5c5c" stroke-opacity=".5" d="M244.76428 64.85625H249.09938V164.33956H244.76428Z"/>
</g>
</g>
<g clip-path="url(#clip_38)">
<g>
<path transform="matrix(1,0,0,-1,0,278.62443)" d="M249.09938 64.85625H253.43448V124.546237H249.09938Z" fill="#8c96c6" fill-opacity=".5"/>
<path transform="matrix(1,0,0,-1,0,278.62443)" stroke-width="1" stroke-linecap="butt" stroke-miterlimit="10" stroke-linejoin="miter" fill="none" stroke="#cd5c5c" stroke-opacity=".5" d="M249.09938 64.85625H253.43448V124.546237H249.09938Z"/>
</g>
</g>
<g clip-path="url(#clip_39)">
<g>
<path transform="matrix(1,0,0,-1,0,278.62443)" d="M253.43448 64.85625H257.76957V164.33956H253.43448Z" fill="#8c96c6" fill-opacity=".5"/>
<path transform="matrix(1,0,0,-1,0,278.62443)" stroke-width="1" stroke-linecap="butt" stroke-miterlimit="10" stroke-linejoin="miter" fill="none" stroke="#cd5c5c" stroke-opacity=".5" d="M253.43448 64.85625H257.76957V164.33956H253.43448Z"/>
</g>
</g>
<g clip-path="url(#clip_40)">
<g>
<path transform="matrix(1,0,0,-1,0,278.62443)" d="M257.76957 64.85625H262.10469V154.39122H257.76957Z" fill="#8c96c6" fill-opacity=".5"/>
<path transform="matrix(1,0,0,-1,0,278.62443)" stroke-width="1" stroke-linecap="butt" stroke-miterlimit="10" stroke-linejoin="miter" fill="none" stroke="#cd5c5c" stroke-opacity=".5" d="M257.76957 64.85625H262.10469V154.39122H257.76957Z"/>
</g>
</g>
<g clip-path="url(#clip_41)">
<g>
<path transform="matrix(1,0,0,-1,0,278.62443)" d="M262.10469 64.85625H266.43977V214.0812H262.10469Z" fill="#8c96c6" fill-opacity=".5"/>
<path transform="matrix(1,0,0,-1,0,278.62443)" stroke-width="1" stroke-linecap="butt" stroke-miterlimit="10" stroke-linejoin="miter" fill="none" stroke="#cd5c5c" stroke-opacity=".5" d="M262.10469 64.85625H266.43977V214.0812H262.10469Z"/>
</g>
</g>
<g clip-path="url(#clip_42)">
<g>
<path transform="matrix(1,0,0,-1,0,278.62443)" d="M266.43977 64.85625H270.77488V204.13288H266.43977Z" fill="#8c96c6" fill-opacity=".5"/>
<path transform="matrix(1,0,0,-1,0,278.62443)" stroke-width="1" stroke-linecap="butt" stroke-miterlimit="10" stroke-linejoin="miter" fill="none" stroke="#cd5c5c" stroke-opacity=".5" d="M266.43977 64.85625H270.77488V204.13288H266.43977Z"/>
</g>
</g>
<g clip-path="url(#clip_43)">
<g>
<path transform="matrix(1,0,0,-1,0,278.62443)" d="M270.77488 64.85625H275.10997V253.87453H270.77488Z" fill="#8c96c6" fill-opacity=".5"/>
<path transform="matrix(1,0,0,-1,0,278.62443)" stroke-width="1" stroke-linecap="butt" stroke-miterlimit="10" stroke-linejoin="miter" fill="none" stroke="#cd5c5c" stroke-opacity=".5" d="M270.77488 64.85625H275.10997V253.87453H270.77488Z"/>
</g>
</g>
<g clip-path="url(#clip_44)">
<g>
<path transform="matrix(1,0,0,-1,0,278.62443)" d="M275.10997 64.85625H279.44505V174.28789H275.10997Z" fill="#8c96c6" fill-opacity=".5"/>
<path transform="matrix(1,0,0,-1,0,278.62443)" stroke-width="1" stroke-linecap="butt" stroke-miterlimit="10" stroke-linejoin="miter" fill="none" stroke="#cd5c5c" stroke-opacity=".5" d="M275.10997 64.85625H279.44505V174.28789H275.10997Z"/>
</g>
</g>
<g clip-path="url(#clip_45)">
<g>
<path transform="matrix(1,0,0,-1,0,278.62443)" d="M279.44505 64.85625H283.78016V204.13288H279.44505Z" fill="#8c96c6" fill-opacity=".5"/>
<path transform="matrix(1,0,0,-1,0,278.62443)" stroke-width="1" stroke-linecap="butt" stroke-miterlimit="10" stroke-linejoin="miter" fill="none" stroke="#cd5c5c" stroke-opacity=".5" d="M279.44505 64.85625H283.78016V204.13288H279.44505Z"/>
</g>
</g>
<g clip-path="url(#clip_46)">
<g>
<path transform="matrix(1,0,0,-1,0,278.62443)" d="M283.78016 64.85625H288.11524V134.49457H283.78016Z" fill="#8c96c6" fill-opacity=".5"/>
<path transform="matrix(1,0,0,-1,0,278.62443)" stroke-width="1" stroke-linecap="butt" stroke-miterlimit="10" stroke-linejoin="miter" fill="none" stroke="#cd5c5c" stroke-opacity=".5" d="M283.78016 64.85625H288.11524V134.49457H283.78016Z"/>
</g>
</g>
<g clip-path="url(#clip_47)">
<g>
<path transform="matrix(1,0,0,-1,0,278.62443)" d="M288.11524 64.85625H292.45036V194.18456H288.11524Z" fill="#8c96c6" fill-opacity=".5"/>
<path transform="matrix(1,0,0,-1,0,278.62443)" stroke-width="1" stroke-linecap="butt" stroke-miterlimit="10" stroke-linejoin="miter" fill="none" stroke="#cd5c5c" stroke-opacity=".5" d="M288.11524 64.85625H292.45036V194.18456H288.11524Z"/>
</g>
</g>
<g clip-path="url(#clip_48)">
<g>
<path transform="matrix(1,0,0,-1,0,278.62443)" d="M292.45036 64.85625H296.78544V134.49457H292.45036Z" fill="#8c96c6" fill-opacity=".5"/>
<path transform="matrix(1,0,0,-1,0,278.62443)" stroke-width="1" stroke-linecap="butt" stroke-miterlimit="10" stroke-linejoin="miter" fill="none" stroke="#cd5c5c" stroke-opacity=".5" d="M292.45036 64.85625H296.78544V134.49457H292.45036Z"/>
</g>
</g>
<g clip-path="url(#clip_49)">
<g>
<path transform="matrix(1,0,0,-1,0,278.62443)" d="M296.78544 64.85625H301.1205V114.5979H296.78544Z" fill="#8c96c6" fill-opacity=".5"/>
<path transform="matrix(1,0,0,-1,0,278.62443)" stroke-width="1" stroke-linecap="butt" stroke-miterlimit="10" stroke-linejoin="miter" fill="none" stroke="#cd5c5c" stroke-opacity=".5" d="M296.78544 64.85625H301.1205V114.5979H296.78544Z"/>
</g>
</g>
<g clip-path="url(#clip_50)">
<path transform="matrix(1,0,0,-1,0,278.62443)" stroke-width=".7" stroke-linecap="butt" stroke-dasharray=".7,1.155" stroke-linejoin="round" fill="none" stroke="#b0b0b0" d="M62.559377 64.85625V268.79704"/>
</g>
<path transform="matrix(1,0,0,-1,0,278.62443)" d="M62.559377 64.85625V59.85625"/>
<path transform="matrix(1,0,0,-1,0,278.62443)" stroke-width=".8" stroke-linecap="butt" stroke-linejoin="round" fill="none" stroke="#000000" d="M62.559377 64.85625V59.85625"/>
<text xml:space="preserve" transform="matrix(1 0 -0 1 39.059377 238.11193)" font-size="20" font-family="DejaVuSans"><tspan y="-.953125" x="0 12.724609">10</tspan></text>
<text xml:space="preserve" transform="matrix(1 0 -0 1 39.059377 238.11193)" font-size="14" font-family="DejaVuSans"><tspan y="-8.609375" x="37.371095">3</tspan></text>
<g clip-path="url(#clip_51)">
<path transform="matrix(.014,0,0,-.014,64.7,229.50255)" d="M106 355H732V272H106V355Z"/>
</g>
<g clip-path="url(#clip_52)">
<path transform="matrix(1,0,0,-1,0,278.62443)" stroke-width=".7" stroke-linecap="butt" stroke-dasharray=".7,1.155" stroke-linejoin="round" fill="none" stroke="#b0b0b0" d="M164.58028 64.85625V268.79704"/>
</g>
<path transform="matrix(1,0,0,-1,0,278.62443)" d="M164.58028 64.85625V59.85625"/>
<path transform="matrix(1,0,0,-1,0,278.62443)" stroke-width=".8" stroke-linecap="butt" stroke-linejoin="round" fill="none" stroke="#000000" d="M164.58028 64.85625V59.85625"/>
<text xml:space="preserve" transform="matrix(1 0 -0 1 141.08028 238.11193)" font-size="20" font-family="DejaVuSans"><tspan y="-.953125" x="0 12.724609">10</tspan></text>
<text xml:space="preserve" transform="matrix(1 0 -0 1 141.08028 238.11193)" font-size="14" font-family="DejaVuSans"><tspan y="-8.609375" x="37.371095">2</tspan></text>
<g clip-path="url(#clip_53)">
<path transform="matrix(.014,0,0,-.014,166.7209,229.50255)" d="M106 355H732V272H106V355Z"/>
</g>
<g clip-path="url(#clip_54)">
<path transform="matrix(1,0,0,-1,0,278.62443)" stroke-width=".7" stroke-linecap="butt" stroke-dasharray=".7,1.155" stroke-linejoin="round" fill="none" stroke="#b0b0b0" d="M266.60118 64.85625V268.79704"/>
</g>
<path transform="matrix(1,0,0,-1,0,278.62443)" d="M266.60118 64.85625V59.85625"/>
<path transform="matrix(1,0,0,-1,0,278.62443)" stroke-width=".8" stroke-linecap="butt" stroke-linejoin="round" fill="none" stroke="#000000" d="M266.60118 64.85625V59.85625"/>
<text xml:space="preserve" transform="matrix(1 0 -0 1 243.10118 237.4713)" font-size="20" font-family="DejaVuSans"><tspan y="-.1390625" x="0 12.724609">10</tspan></text>
<text xml:space="preserve" transform="matrix(1 0 -0 1 243.10118 237.4713)" font-size="14" font-family="DejaVuSans"><tspan y="-7.7953126" x="37.371095">1</tspan></text>
<g clip-path="url(#clip_55)">
<path transform="matrix(.014,0,0,-.014,268.74183,229.67598)" d="M106 355H732V272H106V355Z"/>
</g>
<g clip-path="url(#clip_56)">
<path transform="matrix(1,0,0,-1,0,278.62443)" stroke-width=".7" stroke-linecap="butt" stroke-dasharray=".7,1.155" stroke-linejoin="round" fill="none" stroke="#b0b0b0" d="M93.27073 64.85625V268.79704"/>
</g>
<path transform="matrix(1,0,0,-1,0,278.62443)" d="M93.27073 64.85625V62.85625"/>
<path transform="matrix(1,0,0,-1,0,278.62443)" stroke-width=".6" stroke-linecap="butt" stroke-linejoin="round" fill="none" stroke="#000000" d="M93.27073 64.85625V62.85625"/>
<g clip-path="url(#clip_57)">
<path transform="matrix(1,0,0,-1,0,278.62443)" stroke-width=".7" stroke-linecap="butt" stroke-dasharray=".7,1.155" stroke-linejoin="round" fill="none" stroke="#b0b0b0" d="M111.23572 64.85625V268.79704"/>
</g>
<path transform="matrix(1,0,0,-1,0,278.62443)" d="M111.23572 64.85625V62.85625"/>
<path transform="matrix(1,0,0,-1,0,278.62443)" stroke-width=".6" stroke-linecap="butt" stroke-linejoin="round" fill="none" stroke="#000000" d="M111.23572 64.85625V62.85625"/>
<g clip-path="url(#clip_58)">
<path transform="matrix(1,0,0,-1,0,278.62443)" stroke-width=".7" stroke-linecap="butt" stroke-dasharray=".7,1.155" stroke-linejoin="round" fill="none" stroke="#b0b0b0" d="M123.98208 64.85625V268.79704"/>
</g>
<path transform="matrix(1,0,0,-1,0,278.62443)" d="M123.98208 64.85625V62.85625"/>
<path transform="matrix(1,0,0,-1,0,278.62443)" stroke-width=".6" stroke-linecap="butt" stroke-linejoin="round" fill="none" stroke="#000000" d="M123.98208 64.85625V62.85625"/>
<g clip-path="url(#clip_59)">
<path transform="matrix(1,0,0,-1,0,278.62443)" stroke-width=".7" stroke-linecap="butt" stroke-dasharray=".7,1.155" stroke-linejoin="round" fill="none" stroke="#b0b0b0" d="M133.86893 64.85625V268.79704"/>
</g>
<path transform="matrix(1,0,0,-1,0,278.62443)" d="M133.86893 64.85625V62.85625"/>
<path transform="matrix(1,0,0,-1,0,278.62443)" stroke-width=".6" stroke-linecap="butt" stroke-linejoin="round" fill="none" stroke="#000000" d="M133.86893 64.85625V62.85625"/>
<g clip-path="url(#clip_60)">
<path transform="matrix(1,0,0,-1,0,278.62443)" stroke-width=".7" stroke-linecap="butt" stroke-dasharray=".7,1.155" stroke-linejoin="round" fill="none" stroke="#b0b0b0" d="M141.94707 64.85625V268.79704"/>
</g>
<path transform="matrix(1,0,0,-1,0,278.62443)" d="M141.94707 64.85625V62.85625"/>
<path transform="matrix(1,0,0,-1,0,278.62443)" stroke-width=".6" stroke-linecap="butt" stroke-linejoin="round" fill="none" stroke="#000000" d="M141.94707 64.85625V62.85625"/>
<g clip-path="url(#clip_61)">
<path transform="matrix(1,0,0,-1,0,278.62443)" stroke-width=".7" stroke-linecap="butt" stroke-dasharray=".7,1.155" stroke-linejoin="round" fill="none" stroke="#b0b0b0" d="M148.77704 64.85625V268.79704"/>
</g>
<path transform="matrix(1,0,0,-1,0,278.62443)" d="M148.77704 64.85625V62.85625"/>
<path transform="matrix(1,0,0,-1,0,278.62443)" stroke-width=".6" stroke-linecap="butt" stroke-linejoin="round" fill="none" stroke="#000000" d="M148.77704 64.85625V62.85625"/>
<g clip-path="url(#clip_62)">
<path transform="matrix(1,0,0,-1,0,278.62443)" stroke-width=".7" stroke-linecap="butt" stroke-dasharray=".7,1.155" stroke-linejoin="round" fill="none" stroke="#b0b0b0" d="M154.69344 64.85625V268.79704"/>
</g>
<path transform="matrix(1,0,0,-1,0,278.62443)" d="M154.69344 64.85625V62.85625"/>
<path transform="matrix(1,0,0,-1,0,278.62443)" stroke-width=".6" stroke-linecap="butt" stroke-linejoin="round" fill="none" stroke="#000000" d="M154.69344 64.85625V62.85625"/>
<g clip-path="url(#clip_63)">
<path transform="matrix(1,0,0,-1,0,278.62443)" stroke-width=".7" stroke-linecap="butt" stroke-dasharray=".7,1.155" stroke-linejoin="round" fill="none" stroke="#b0b0b0" d="M159.91205 64.85625V268.79704"/>
</g>
<path transform="matrix(1,0,0,-1,0,278.62443)" d="M159.91205 64.85625V62.85625"/>
<path transform="matrix(1,0,0,-1,0,278.62443)" stroke-width=".6" stroke-linecap="butt" stroke-linejoin="round" fill="none" stroke="#000000" d="M159.91205 64.85625V62.85625"/>
<g clip-path="url(#clip_64)">
<path transform="matrix(1,0,0,-1,0,278.62443)" stroke-width=".7" stroke-linecap="butt" stroke-dasharray=".7,1.155" stroke-linejoin="round" fill="none" stroke="#b0b0b0" d="M195.29163 64.85625V268.79704"/>
</g>
<path transform="matrix(1,0,0,-1,0,278.62443)" d="M195.29163 64.85625V62.85625"/>
<path transform="matrix(1,0,0,-1,0,278.62443)" stroke-width=".6" stroke-linecap="butt" stroke-linejoin="round" fill="none" stroke="#000000" d="M195.29163 64.85625V62.85625"/>
<g clip-path="url(#clip_65)">
<path transform="matrix(1,0,0,-1,0,278.62443)" stroke-width=".7" stroke-linecap="butt" stroke-dasharray=".7,1.155" stroke-linejoin="round" fill="none" stroke="#b0b0b0" d="M213.25662 64.85625V268.79704"/>
</g>
<path transform="matrix(1,0,0,-1,0,278.62443)" d="M213.25662 64.85625V62.85625"/>
<path transform="matrix(1,0,0,-1,0,278.62443)" stroke-width=".6" stroke-linecap="butt" stroke-linejoin="round" fill="none" stroke="#000000" d="M213.25662 64.85625V62.85625"/>
<g clip-path="url(#clip_66)">
<path transform="matrix(1,0,0,-1,0,278.62443)" stroke-width=".7" stroke-linecap="butt" stroke-dasharray=".7,1.155" stroke-linejoin="round" fill="none" stroke="#b0b0b0" d="M226.00298 64.85625V268.79704"/>
</g>
<path transform="matrix(1,0,0,-1,0,278.62443)" d="M226.00298 64.85625V62.85625"/>
<path transform="matrix(1,0,0,-1,0,278.62443)" stroke-width=".6" stroke-linecap="butt" stroke-linejoin="round" fill="none" stroke="#000000" d="M226.00298 64.85625V62.85625"/>
<g clip-path="url(#clip_67)">
<path transform="matrix(1,0,0,-1,0,278.62443)" stroke-width=".7" stroke-linecap="butt" stroke-dasharray=".7,1.155" stroke-linejoin="round" fill="none" stroke="#b0b0b0" d="M235.88983 64.85625V268.79704"/>
</g>
<path transform="matrix(1,0,0,-1,0,278.62443)" d="M235.88983 64.85625V62.85625"/>
<path transform="matrix(1,0,0,-1,0,278.62443)" stroke-width=".6" stroke-linecap="butt" stroke-linejoin="round" fill="none" stroke="#000000" d="M235.88983 64.85625V62.85625"/>
<g clip-path="url(#clip_68)">
<path transform="matrix(1,0,0,-1,0,278.62443)" stroke-width=".7" stroke-linecap="butt" stroke-dasharray=".7,1.155" stroke-linejoin="round" fill="none" stroke="#b0b0b0" d="M243.96797 64.85625V268.79704"/>
</g>
<path transform="matrix(1,0,0,-1,0,278.62443)" d="M243.96797 64.85625V62.85625"/>
<path transform="matrix(1,0,0,-1,0,278.62443)" stroke-width=".6" stroke-linecap="butt" stroke-linejoin="round" fill="none" stroke="#000000" d="M243.96797 64.85625V62.85625"/>
<g clip-path="url(#clip_69)">
<path transform="matrix(1,0,0,-1,0,278.62443)" stroke-width=".7" stroke-linecap="butt" stroke-dasharray=".7,1.155" stroke-linejoin="round" fill="none" stroke="#b0b0b0" d="M250.79795 64.85625V268.79704"/>
</g>
<path transform="matrix(1,0,0,-1,0,278.62443)" d="M250.79795 64.85625V62.85625"/>
<path transform="matrix(1,0,0,-1,0,278.62443)" stroke-width=".6" stroke-linecap="butt" stroke-linejoin="round" fill="none" stroke="#000000" d="M250.79795 64.85625V62.85625"/>
<g clip-path="url(#clip_70)">
<path transform="matrix(1,0,0,-1,0,278.62443)" stroke-width=".7" stroke-linecap="butt" stroke-dasharray=".7,1.155" stroke-linejoin="round" fill="none" stroke="#b0b0b0" d="M256.71434 64.85625V268.79704"/>
</g>
<path transform="matrix(1,0,0,-1,0,278.62443)" d="M256.71434 64.85625V62.85625"/>
<path transform="matrix(1,0,0,-1,0,278.62443)" stroke-width=".6" stroke-linecap="butt" stroke-linejoin="round" fill="none" stroke="#000000" d="M256.71434 64.85625V62.85625"/>
<g clip-path="url(#clip_71)">
<path transform="matrix(1,0,0,-1,0,278.62443)" stroke-width=".7" stroke-linecap="butt" stroke-dasharray=".7,1.155" stroke-linejoin="round" fill="none" stroke="#b0b0b0" d="M261.93296 64.85625V268.79704"/>
</g>
<path transform="matrix(1,0,0,-1,0,278.62443)" d="M261.93296 64.85625V62.85625"/>
<path transform="matrix(1,0,0,-1,0,278.62443)" stroke-width=".6" stroke-linecap="butt" stroke-linejoin="round" fill="none" stroke="#000000" d="M261.93296 64.85625V62.85625"/>
<g clip-path="url(#clip_72)">
<path transform="matrix(1,0,0,-1,0,278.62443)" stroke-width=".7" stroke-linecap="butt" stroke-dasharray=".7,1.155" stroke-linejoin="round" fill="none" stroke="#b0b0b0" d="M297.31254 64.85625V268.79704"/>
</g>
<path transform="matrix(1,0,0,-1,0,278.62443)" d="M297.31254 64.85625V62.85625"/>
<path transform="matrix(1,0,0,-1,0,278.62443)" stroke-width=".6" stroke-linecap="butt" stroke-linejoin="round" fill="none" stroke="#000000" d="M297.31254 64.85625V62.85625"/>
<text xml:space="preserve" transform="matrix(1 0 -0 1 157.87938 266.01817)" font-size="18.2" font-family="DejaVuSans"><tspan y="4.21875" x="18.034962 35.763967 40.820508">min</tspan></text>
<g clip-path="url(#clip_73)">
<path transform="matrix(.026,0,0,-.026,157.87938,265.97129)" d="M342 632 142 82H542L342 632ZM8 0 286 729H398L676 0H8Z"/>
</g>
<g clip-path="url(#clip_74)">
<path transform="matrix(1,0,0,-1,0,278.62443)" stroke-width=".7" stroke-linecap="butt" stroke-dasharray=".7,1.155" stroke-linejoin="round" fill="none" stroke="#b0b0b0" d="M62.559377 64.85625H307.19938"/>
</g>
<path transform="matrix(1,0,0,-1,0,278.62443)" d="M62.559377 64.85625H57.559377"/>
<path transform="matrix(1,0,0,-1,0,278.62443)" stroke-width=".8" stroke-linecap="butt" stroke-linejoin="round" fill="none" stroke="#000000" d="M62.559377 64.85625H57.559377"/>
<text xml:space="preserve" transform="matrix(1 0 -0 1 41.340627 221.36974)" font-size="20" font-family="DejaVuSans"><tspan y="0" x="0">0</tspan></text>
<g clip-path="url(#clip_75)">
<path transform="matrix(1,0,0,-1,0,278.62443)" stroke-width=".7" stroke-linecap="butt" stroke-dasharray=".7,1.155" stroke-linejoin="round" fill="none" stroke="#b0b0b0" d="M62.559377 114.5979H307.19938"/>
</g>
<path transform="matrix(1,0,0,-1,0,278.62443)" d="M62.559377 114.5979H57.559377"/>
<path transform="matrix(1,0,0,-1,0,278.62443)" stroke-width=".8" stroke-linecap="butt" stroke-linejoin="round" fill="none" stroke="#000000" d="M62.559377 114.5979H57.559377"/>
<text xml:space="preserve" transform="matrix(1 0 -0 1 41.340627 171.62808)" font-size="20" font-family="DejaVuSans"><tspan y="0" x="0">5</tspan></text>
<g clip-path="url(#clip_76)">
<path transform="matrix(1,0,0,-1,0,278.62443)" stroke-width=".7" stroke-linecap="butt" stroke-dasharray=".7,1.155" stroke-linejoin="round" fill="none" stroke="#b0b0b0" d="M62.559377 164.33956H307.19938"/>
</g>
<path transform="matrix(1,0,0,-1,0,278.62443)" d="M62.559377 164.33956H57.559377"/>
<path transform="matrix(1,0,0,-1,0,278.62443)" stroke-width=".8" stroke-linecap="butt" stroke-linejoin="round" fill="none" stroke="#000000" d="M62.559377 164.33956H57.559377"/>
<text xml:space="preserve" transform="matrix(1 0 -0 1 28.621876 121.88643)" font-size="20" font-family="DejaVuSans"><tspan y="0" x="0 12.720001">10</tspan></text>
<g clip-path="url(#clip_77)">
<path transform="matrix(1,0,0,-1,0,278.62443)" stroke-width=".7" stroke-linecap="butt" stroke-dasharray=".7,1.155" stroke-linejoin="round" fill="none" stroke="#b0b0b0" d="M62.559377 214.0812H307.19938"/>
</g>
<path transform="matrix(1,0,0,-1,0,278.62443)" d="M62.559377 214.0812H57.559377"/>
<path transform="matrix(1,0,0,-1,0,278.62443)" stroke-width=".8" stroke-linecap="butt" stroke-linejoin="round" fill="none" stroke="#000000" d="M62.559377 214.0812H57.559377"/>
<text xml:space="preserve" transform="matrix(1 0 -0 1 28.621876 72.144779)" font-size="20" font-family="DejaVuSans"><tspan y="0" x="0 12.720001">15</tspan></text>
<g clip-path="url(#clip_78)">
<path transform="matrix(1,0,0,-1,0,278.62443)" stroke-width=".7" stroke-linecap="butt" stroke-dasharray=".7,1.155" stroke-linejoin="round" fill="none" stroke="#b0b0b0" d="M62.559377 263.82289H307.19938"/>
</g>
<path transform="matrix(1,0,0,-1,0,278.62443)" d="M62.559377 263.82289H57.559377"/>
<path transform="matrix(1,0,0,-1,0,278.62443)" stroke-width=".8" stroke-linecap="butt" stroke-linejoin="round" fill="none" stroke="#000000" d="M62.559377 263.82289H57.559377"/>
<text xml:space="preserve" transform="matrix(1 0 -0 1 28.621876 22.403107)" font-size="20" font-family="DejaVuSans"><tspan y="0" x="0 12.720001">20</tspan></text>
<text xml:space="preserve" transform="matrix(0 -1 1 0 20.871876 138.52434)" font-size="18" font-family="DejaVuSans"><tspan y="0" x="0 12.564 23.580002 34.992 46.404">Count</tspan></text>
<path transform="matrix(1,0,0,-1,0,278.62443)" stroke-width=".8" stroke-linecap="square" stroke-miterlimit="10" stroke-linejoin="miter" fill="none" stroke="#000000" d="M62.559377 64.85625V268.79704"/>
<path transform="matrix(1,0,0,-1,0,278.62443)" stroke-width=".8" stroke-linecap="square" stroke-miterlimit="10" stroke-linejoin="miter" fill="none" stroke="#000000" d="M307.19938 64.85625V268.79704"/>
<path transform="matrix(1,0,0,-1,0,278.62443)" stroke-width=".8" stroke-linecap="square" stroke-miterlimit="10" stroke-linejoin="miter" fill="none" stroke="#000000" d="M62.559377 64.85625H307.19938"/>
<path transform="matrix(1,0,0,-1,0,278.62443)" stroke-width=".8" stroke-linecap="square" stroke-miterlimit="10" stroke-linejoin="miter" fill="none" stroke="#000000" d="M62.559377 268.79704H307.19938"/>
<path transform="matrix(1,0,0,-1,0,278.62443)" d="M307.19938 64.85625H312.19938"/>
<path transform="matrix(1,0,0,-1,0,278.62443)" stroke-width=".8" stroke-linecap="butt" stroke-linejoin="round" fill="none" stroke="#000000" d="M307.19938 64.85625H312.19938"/>
<text xml:space="preserve" transform="matrix(1 0 -0 1 315.69938 221.36974)" font-size="20" font-family="DejaVuSans"><tspan y="0" x="0 12.720001 19.080002 31.800004">0.00</tspan></text>
<path transform="matrix(1,0,0,-1,0,278.62443)" d="M307.19938 113.41358H312.19938"/>
<path transform="matrix(1,0,0,-1,0,278.62443)" stroke-width=".8" stroke-linecap="butt" stroke-linejoin="round" fill="none" stroke="#000000" d="M307.19938 113.41358H312.19938"/>
<text xml:space="preserve" transform="matrix(1 0 -0 1 315.69938 172.81241)" font-size="20" font-family="DejaVuSans"><tspan y="0" x="0 12.720001 19.080002 31.800004">0.25</tspan></text>
<path transform="matrix(1,0,0,-1,0,278.62443)" d="M307.19938 161.9709H312.19938"/>
<path transform="matrix(1,0,0,-1,0,278.62443)" stroke-width=".8" stroke-linecap="butt" stroke-linejoin="round" fill="none" stroke="#000000" d="M307.19938 161.9709H312.19938"/>
<text xml:space="preserve" transform="matrix(1 0 -0 1 315.69938 124.25508)" font-size="20" font-family="DejaVuSans"><tspan y="0" x="0 12.720001 19.080002 31.800004">0.50</tspan></text>
<path transform="matrix(1,0,0,-1,0,278.62443)" d="M307.19938 210.52823H312.19938"/>
<path transform="matrix(1,0,0,-1,0,278.62443)" stroke-width=".8" stroke-linecap="butt" stroke-linejoin="round" fill="none" stroke="#000000" d="M307.19938 210.52823H312.19938"/>
<text xml:space="preserve" transform="matrix(1 0 -0 1 315.69938 75.697757)" font-size="20" font-family="DejaVuSans"><tspan y="0" x="0 12.720001 19.080002 31.800004">0.75</tspan></text>
<path transform="matrix(1,0,0,-1,0,278.62443)" d="M307.19938 259.08558H312.19938"/>
<path transform="matrix(1,0,0,-1,0,278.62443)" stroke-width=".8" stroke-linecap="butt" stroke-linejoin="round" fill="none" stroke="#000000" d="M307.19938 259.08558H312.19938"/>
<text xml:space="preserve" transform="matrix(1 0 -0 1 315.69938 27.140412)" font-size="20" font-family="DejaVuSans"><tspan y="0" x="0 12.720001 19.080002 31.800004">1.00</tspan></text>
<text xml:space="preserve" transform="matrix(0 -1 1 0 377.88688 130.1884)" font-size="18" font-family="DejaVuSans"><tspan y="0" x="0 12.564 26.424">CDF</tspan></text>
<g clip-path="url(#clip_79)">
<path transform="matrix(1,0,0,-1,0,278.62443)" stroke-width="2" stroke-linecap="square" stroke-linejoin="round" fill="none" stroke="#4d004b" d="M90.92141 64.85625H95.2565L99.5916 65.84721 103.92669 66.83818H108.26179 112.596889L116.93198 67.82915 121.267078 69.81108H125.602169 129.93726L134.27236 70.80205H138.60746L142.94255 71.793018H147.27765 151.61273 155.94783L160.28293 72.78397 164.61803 73.77494 168.95313 76.74784H173.28821L177.6233 77.73881 181.9584 79.72074H186.2935L190.6286 82.693637 194.96369 83.6846 199.29878 85.666538 203.63388 88.639438 207.96898 92.603298 212.30408 93.59426 216.63916 96.56716 220.97426 98.54909 225.30936 101.52199 229.64446 105.485858 233.97956 110.44068 238.31464 116.386478 242.64974 120.35034 246.98484 130.26 251.31993 136.2058 255.65503 146.11545 259.9901 155.03415 264.32524 169.89864 268.6603 183.77216 272.9954 202.60051 277.3305 213.50113 281.6656 227.37465 286.0007 234.31142 290.3358 247.19397 294.67088 254.13074 299.00599 259.08558"/>
</g>
<path transform="matrix(1,0,0,-1,0,278.62443)" stroke-width=".8" stroke-linecap="square" stroke-miterlimit="10" stroke-linejoin="miter" fill="none" stroke="#000000" d="M62.559377 64.85625V268.79704"/>
<path transform="matrix(1,0,0,-1,0,278.62443)" stroke-width=".8" stroke-linecap="square" stroke-miterlimit="10" stroke-linejoin="miter" fill="none" stroke="#000000" d="M307.19938 64.85625V268.79704"/>
<path transform="matrix(1,0,0,-1,0,278.62443)" stroke-width=".8" stroke-linecap="square" stroke-miterlimit="10" stroke-linejoin="miter" fill="none" stroke="#000000" d="M62.559377 64.85625H307.19938"/>
<path transform="matrix(1,0,0,-1,0,278.62443)" stroke-width=".8" stroke-linecap="square" stroke-miterlimit="10" stroke-linejoin="miter" fill="none" stroke="#000000" d="M62.559377 268.79704H307.19938"/>
</svg>
