<svg xmlns="http://www.w3.org/2000/svg" xmlns:xlink="http://www.w3.org/1999/xlink" xmlns:inkscape="http://www.inkscape.org/namespaces/inkscape" version="1.1" width="567.0309" height="352.0204" viewBox="0 0 567.0309 352.0204">
<defs>
<clipPath id="clip_1">
<path transform="matrix(1,0,0,-1,0,352.0204)" d="M90.2 69.93446H559.8309V344.82038H90.2Z"/>
</clipPath>
<clipPath id="clip_2">
<path transform="matrix(1,0,0,-1,0,352.0204)" d="M90.2 69.93446H559.8309V344.82038H90.2Z"/>
</clipPath>
<clipPath id="clip_3">
<path transform="matrix(1,0,0,-1,0,352.0204)" d="M90.2 69.93446H559.8309V344.82038H90.2Z"/>
</clipPath>
<clipPath id="clip_4">
<path transform="matrix(1,0,0,-1,0,352.0204)" d="M90.2 69.93446H559.8309V344.82038H90.2Z"/>
</clipPath>
<clipPath id="clip_5">
<path transform="matrix(1,0,0,-1,0,352.0204)" d="M90.2 69.93446H559.8309V344.82038H90.2Z"/>
</clipPath>
<clipPath id="clip_6">
<path transform="matrix(1,0,0,-1,0,352.0204)" d="M90.2 69.93446H559.8309V344.82038H90.2Z"/>
</clipPath>
<clipPath id="clip_7">
<path transform="matrix(1,0,0,-1,0,352.0204)" d="M90.2 69.93446H559.8309V344.82038H90.2Z"/>
</clipPath>
<clipPath id="clip_8">
<path transform="matrix(1,0,0,-1,0,352.0204)" d="M90.2 69.93446H559.8309V344.82038H90.2Z"/>
</clipPath>
<clipPath id="clip_9">
<path transform="matrix(1,0,0,-1,0,352.0204)" d="M90.2 69.93446H559.8309V344.82038H90.2Z"/>
</clipPath>
<clipPath id="clip_10">
<path transform="matrix(1,0,0,-1,0,352.0204)" d="M90.2 69.93446H559.8309V344.82038H90.2Z"/>
</clipPath>
<clipPath id="clip_11">
<path transform="matrix(.014,0,0,-.014,61.840627,252.96237)" d="M-1021-463H1794V1233H-1021Z"/>
</clipPath>
<clipPath id="clip_12">
<path transform="matrix(1,0,0,-1,0,352.0204)" d="M90.2 69.93446H559.8309V344.82038H90.2Z"/>
</clipPath>
<clipPath id="clip_13">
<path transform="matrix(.014,0,0,-.014,61.840627,174.467)" d="M-1021-463H1794V1233H-1021Z"/>
</clipPath>
<clipPath id="clip_14">
<path transform="matrix(1,0,0,-1,0,352.0204)" d="M90.2 69.93446H559.8309V344.82038H90.2Z"/>
</clipPath>
<clipPath id="clip_15">
<path transform="matrix(.014,0,0,-.014,61.840627,96.46537)" d="M-1021-463H1794V1233H-1021Z"/>
</clipPath>
<clipPath id="clip_16">
<path transform="matrix(1,0,0,-1,0,352.0204)" d="M90.2 69.93446H559.8309V344.82038H90.2Z"/>
</clipPath>
<clipPath id="clip_17">
<path transform="matrix(1,0,0,-1,0,352.0204)" d="M90.2 69.93446H559.8309V344.82038H90.2Z"/>
</clipPath>
<clipPath id="clip_18">
<path transform="matrix(1,0,0,-1,0,352.0204)" d="M90.2 69.93446H559.8309V344.82038H90.2Z"/>
</clipPath>
<clipPath id="clip_19">
<path transform="matrix(1,0,0,-1,0,352.0204)" d="M90.2 69.93446H559.8309V344.82038H90.2Z"/>
</clipPath>
<clipPath id="clip_20">
<path transform="matrix(1,0,0,-1,0,352.0204)" d="M90.2 69.93446H559.8309V344.82038H90.2Z"/>
</clipPath>
<clipPath id="clip_21">
<path transform="matrix(1,0,0,-1,0,352.0204)" d="M90.2 69.93446H559.8309V344.82038H90.2Z"/>
</clipPath>
<clipPath id="clip_22">
<path transform="matrix(1,0,0,-1,0,352.0204)" d="M90.2 69.93446H559.8309V344.82038H90.2Z"/>
</clipPath>
<clipPath id="clip_23">
<path transform="matrix(1,0,0,-1,0,352.0204)" d="M90.2 69.93446H559.8309V344.82038H90.2Z"/>
</clipPath>
<clipPath id="clip_24">
<path transform="matrix(1,0,0,-1,0,352.0204)" d="M90.2 69.93446H559.8309V344.82038H90.2Z"/>
</clipPath>
<clipPath id="clip_25">
<path transform="matrix(1,0,0,-1,0,352.0204)" d="M90.2 69.93446H559.8309V344.82038H90.2Z"/>
</clipPath>
<clipPath id="clip_26">
<path transform="matrix(1,0,0,-1,0,352.0204)" d="M90.2 69.93446H559.8309V344.82038H90.2Z"/>
</clipPath>
<clipPath id="clip_27">
<path transform="matrix(1,0,0,-1,0,352.0204)" d="M90.2 69.93446H559.8309V344.82038H90.2Z"/>
</clipPath>
<clipPath id="clip_28">
<path transform="matrix(1,0,0,-1,0,352.0204)" d="M90.2 69.93446H559.8309V344.82038H90.2Z"/>
</clipPath>
<clipPath id="clip_29">
<path transform="matrix(1,0,0,-1,0,352.0204)" d="M90.2 69.93446H559.8309V344.82038H90.2Z"/>
</clipPath>
<clipPath id="clip_30">
<path transform="matrix(1,0,0,-1,0,352.0204)" d="M90.2 69.93446H559.8309V344.82038H90.2Z"/>
</clipPath>
<clipPath id="clip_31">
<path transform="matrix(1,0,0,-1,0,352.0204)" d="M90.2 69.93446H559.8309V344.82038H90.2Z"/>
</clipPath>
<clipPath id="clip_32">
<path transform="matrix(1,0,0,-1,0,352.0204)" d="M90.2 69.93446H559.8309V344.82038H90.2Z"/>
</clipPath>
<clipPath id="clip_33">
<path transform="matrix(1,0,0,-1,0,352.0204)" d="M90.2 69.93446H559.8309V344.82038H90.2Z"/>
</clipPath>
<clipPath id="clip_34">
<path transform="matrix(1,0,0,-1,0,352.0204)" d="M90.2 69.93446H559.8309V344.82038H90.2Z"/>
</clipPath>
<clipPath id="clip_35">
<path transform="matrix(1,0,0,-1,0,352.0204)" d="M90.2 69.93446H559.8309V344.82038H90.2Z"/>
</clipPath>
<clipPath id="clip_36">
<path transform="matrix(1,0,0,-1,0,352.0204)" d="M90.2 69.93446H559.8309V344.82038H90.2Z"/>
</clipPath>
<clipPath id="clip_37">
<path transform="matrix(1,0,0,-1,0,352.0204)" d="M90.2 69.93446H559.8309V344.82038H90.2Z"/>
</clipPath>
<clipPath id="clip_38">
<path transform="matrix(1,0,0,-1,0,352.0204)" d="M90.2 69.93446H559.8309V344.82038H90.2Z"/>
</clipPath>
<clipPath id="clip_39">
<path transform="matrix(1,0,0,-1,0,352.0204)" d="M90.2 69.93446H559.8309V344.82038H90.2Z"/>
</clipPath>
<clipPath id="clip_40">
<path transform="matrix(1,0,0,-1,0,352.0204)" d="M90.2 69.93446H559.8309V344.82038H90.2Z"/>
</clipPath>
<clipPath id="clip_41">
<path transform="matrix(1,0,0,-1,0,352.0204)" d="M90.2 69.93446H559.8309V344.82038H90.2Z"/>
</clipPath>
<clipPath id="clip_42">
<path transform="matrix(1,0,0,-1,0,352.0204)" d="M90.2 69.93446H559.8309V344.82038H90.2Z"/>
</clipPath>
<clipPath id="clip_43">
<path transform="matrix(1,0,0,-1,0,352.0204)" d="M90.2 69.93446H559.8309V344.82038H90.2Z"/>
</clipPath>
<clipPath id="clip_44">
<path transform="matrix(1,0,0,-1,0,352.0204)" d="M90.2 69.93446H559.8309V344.82038H90.2Z"/>
</clipPath>
<clipPath id="clip_45">
<path transform="matrix(1,0,0,-1,0,352.0204)" d="M90.2 69.93446H559.8309V344.82038H90.2Z"/>
</clipPath>
<clipPath id="clip_46">
<path transform="matrix(1,0,0,-1,0,352.0204)" d="M90.2 69.93446H559.8309V344.82038H90.2Z"/>
</clipPath>
<clipPath id="clip_47">
<path transform="matrix(1,0,0,-1,0,352.0204)" d="M90.2 69.93446H559.8309V344.82038H90.2Z"/>
</clipPath>
<clipPath id="clip_48">
<path transform="matrix(1,0,0,-1,0,352.0204)" d="M90.2 69.93446H559.8309V344.82038H90.2Z"/>
</clipPath>
<clipPath id="clip_49">
<path transform="matrix(1,0,0,-1,0,352.0204)" d="M90.2 69.93446H559.8309V344.82038H90.2Z"/>
</clipPath>
<clipPath id="clip_50">
<path transform="matrix(1,0,0,-1,0,352.0204)" d="M90.2 69.93446H559.8309V344.82038H90.2Z"/>
</clipPath>
<clipPath id="clip_51">
<path transform="matrix(1,0,0,-1,0,352.0204)" d="M90.2 69.93446H559.8309V344.82038H90.2Z"/>
</clipPath>
<clipPath id="clip_52">
<path transform="matrix(1,0,0,-1,0,352.0204)" d="M90.2 69.93446H559.8309V344.82038H90.2Z"/>
</clipPath>
<clipPath id="clip_53">
<path transform="matrix(1,0,0,-1,0,352.0204)" d="M90.2 69.93446H559.8309V344.82038H90.2Z"/>
</clipPath>
<clipPath id="clip_54">
<path transform="matrix(1,0,0,-1,0,352.0204)" d="M90.2 69.93446H559.8309V344.82038H90.2Z"/>
</clipPath>
<clipPath id="clip_55">
<path transform="matrix(1,0,0,-1,0,352.0204)" d="M90.2 69.93446H559.8309V344.82038H90.2Z"/>
</clipPath>
<clipPath id="clip_56">
<path transform="matrix(1,0,0,-1,0,352.0204)" d="M90.2 69.93446H559.8309V344.82038H90.2Z"/>
</clipPath>
<clipPath id="clip_57">
<path transform="matrix(1,0,0,-1,0,352.0204)" d="M90.2 69.93446H559.8309V344.82038H90.2Z"/>
</clipPath>
<clipPath id="clip_58">
<path transform="matrix(1,0,0,-1,0,352.0204)" d="M90.2 69.93446H559.8309V344.82038H90.2Z"/>
</clipPath>
<clipPath id="clip_59">
<path transform="matrix(1,0,0,-1,0,352.0204)" d="M90.2 69.93446H559.8309V344.82038H90.2Z"/>
</clipPath>
<clipPath id="clip_60">
<path transform="matrix(1,0,0,-1,0,352.0204)" d="M90.2 69.93446H559.8309V344.82038H90.2Z"/>
</clipPath>
<clipPath id="clip_61">
<path transform="matrix(1,0,0,-1,0,352.0204)" d="M90.2 69.93446H559.8309V344.82038H90.2Z"/>
</clipPath>
<clipPath id="clip_62">
<path transform="matrix(1,0,0,-1,0,352.0204)" d="M90.2 69.93446H559.8309V344.82038H90.2Z"/>
</clipPath>
<clipPath id="clip_63">
<path transform="matrix(1,0,0,-1,0,352.0204)" d="M90.2 69.93446H559.8309V344.82038H90.2Z"/>
</clipPath>
<clipPath id="clip_64">
<path transform="matrix(1,0,0,-1,0,352.0204)" d="M90.2 69.93446H559.8309V344.82038H90.2Z"/>
</clipPath>
<clipPath id="clip_65">
<path transform="matrix(1,0,0,-1,0,352.0204)" d="M90.2 69.93446H559.8309V344.82038H90.2Z"/>
</clipPath>
<clipPath id="clip_66">
<path transform="matrix(1,0,0,-1,0,352.0204)" d="M90.2 69.93446H559.8309V344.82038H90.2Z"/>
</clipPath>
<clipPath id="clip_67">
<path transform="matrix(1,0,0,-1,0,352.0204)" d="M90.2 69.93446H559.8309V344.82038H90.2Z"/>
</clipPath>
<clipPath id="clip_68">
<path transform="matrix(1,0,0,-1,0,352.0204)" d="M90.2 69.93446H559.8309V344.82038H90.2Z"/>
</clipPath>
<clipPath id="clip_69">
<path transform="matrix(1,0,0,-1,0,352.0204)" d="M90.2 69.93446H559.8309V344.82038H90.2Z"/>
</clipPath>
<clipPath id="clip_70">
<path transform="matrix(1,0,0,-1,0,352.0204)" d="M90.2 69.93446H559.8309V344.82038H90.2Z"/>
</clipPath>
<clipPath id="clip_71">
<path transform="matrix(1,0,0,-1,0,352.0204)" d="M90.2 69.93446H559.8309V344.82038H90.2Z"/>
</clipPath>
<clipPath id="clip_72">
<path transform="matrix(1,0,0,-1,0,352.0204)" d="M90.2 69.93446H559.8309V344.82038H90.2Z"/>
</clipPath>
<clipPath id="clip_73">
<path transform="matrix(1,0,0,-1,0,352.0204)" d="M90.2 69.93446H559.8309V344.82038H90.2Z"/>
</clipPath>
<clipPath id="clip_74">
<path transform="matrix(1,0,0,-1,0,352.0204)" d="M90.2 69.93446H559.8309V344.82038H90.2Z"/>
</clipPath>
<clipPath id="clip_75">
<path transform="matrix(1,0,0,-1,0,352.0204)" d="M90.2 69.93446H559.8309V344.82038H90.2Z"/>
</clipPath>
<clipPath id="clip_76">
<path transform="matrix(1,0,0,-1,111.54686,75.379947)" d="M-9.5-9.5H9.5V9.5H-9.5Z"/>
</clipPath>
<clipPath id="clip_77">
<path transform="matrix(1,0,0,-1,187.59339,90.00695)" d="M-9.5-9.5H9.5V9.5H-9.5Z"/>
</clipPath>
<clipPath id="clip_78">
<path transform="matrix(1,0,0,-1,302.26194,124.942188)" d="M-9.5-9.5H9.5V9.5H-9.5Z"/>
</clipPath>
<clipPath id="clip_79">
<path transform="matrix(1,0,0,-1,0,352.0204)" d="M90.2 69.93446H559.8309V344.82038H90.2Z"/>
</clipPath>
<clipPath id="clip_80">
<path transform="matrix(1,0,0,-1,111.54686,38.902864)" d="M-9.5-9.5H9.5V9.5H-9.5Z"/>
</clipPath>
<clipPath id="clip_81">
<path transform="matrix(1,0,0,-1,187.59339,32.53714)" d="M-9.5-9.5H9.5V9.5H-9.5Z"/>
</clipPath>
<clipPath id="clip_82">
<path transform="matrix(1,0,0,-1,302.26194,47.261747)" d="M-9.5-9.5H9.5V9.5H-9.5Z"/>
</clipPath>
<clipPath id="clip_83">
<path transform="matrix(1,0,0,-1,0,352.0204)" d="M90.2 69.93446H559.8309V344.82038H90.2Z"/>
</clipPath>
<clipPath id="clip_84">
<path transform="matrix(1,0,0,-1,111.54686,33.01996)" d="M-9.5-9.5H9.5V9.5H-9.5Z"/>
</clipPath>
<clipPath id="clip_85">
<path transform="matrix(1,0,0,-1,187.59339,23.733786)" d="M-9.5-9.5H9.5V9.5H-9.5Z"/>
</clipPath>
<clipPath id="clip_86">
<path transform="matrix(1,0,0,-1,302.26194,36.397359)" d="M-9.5-9.5H9.5V9.5H-9.5Z"/>
</clipPath>
<clipPath id="clip_87">
<path transform="matrix(1,0,0,-1,0,352.0204)" d="M90.2 69.93446H559.8309V344.82038H90.2Z"/>
</clipPath>
<clipPath id="clip_88">
<path transform="matrix(1,0,0,-1,302.26194,129.78871)" d="M-9.5-9.5H9.5V9.5H-9.5Z"/>
</clipPath>
<clipPath id="clip_89">
<path transform="matrix(1,0,0,-1,347.76896,150.9725)" d="M-9.5-9.5H9.5V9.5H-9.5Z"/>
</clipPath>
<clipPath id="clip_90">
<path transform="matrix(1,0,0,-1,387.909,164.63765)" d="M-9.5-9.5H9.5V9.5H-9.5Z"/>
</clipPath>
<clipPath id="clip_91">
<path transform="matrix(1,0,0,-1,456.29689,203.49268)" d="M-9.5-9.5H9.5V9.5H-9.5Z"/>
</clipPath>
<clipPath id="clip_92">
<path transform="matrix(1,0,0,-1,0,352.0204)" d="M90.2 69.93446H559.8309V344.82038H90.2Z"/>
</clipPath>
<clipPath id="clip_93">
<path transform="matrix(1,0,0,-1,302.26194,50.40323)" d="M-9.5-9.5H9.5V9.5H-9.5Z"/>
</clipPath>
<clipPath id="clip_94">
<path transform="matrix(1,0,0,-1,347.76896,45.033937)" d="M-9.5-9.5H9.5V9.5H-9.5Z"/>
</clipPath>
<clipPath id="clip_95">
<path transform="matrix(1,0,0,-1,387.909,49.770685)" d="M-9.5-9.5H9.5V9.5H-9.5Z"/>
</clipPath>
<clipPath id="clip_96">
<path transform="matrix(1,0,0,-1,456.29689,63.684167)" d="M-9.5-9.5H9.5V9.5H-9.5Z"/>
</clipPath>
<clipPath id="clip_97">
<path transform="matrix(1,0,0,-1,0,352.0204)" d="M90.2 69.93446H559.8309V344.82038H90.2Z"/>
</clipPath>
<clipPath id="clip_98">
<path transform="matrix(1,0,0,-1,302.26194,39.386537)" d="M-9.5-9.5H9.5V9.5H-9.5Z"/>
</clipPath>
<clipPath id="clip_99">
<path transform="matrix(1,0,0,-1,347.76896,32.003927)" d="M-9.5-9.5H9.5V9.5H-9.5Z"/>
</clipPath>
<clipPath id="clip_100">
<path transform="matrix(1,0,0,-1,387.909,32.086278)" d="M-9.5-9.5H9.5V9.5H-9.5Z"/>
</clipPath>
<clipPath id="clip_101">
<path transform="matrix(1,0,0,-1,456.29689,37.783746)" d="M-9.5-9.5H9.5V9.5H-9.5Z"/>
</clipPath>
<clipPath id="clip_102">
<path transform="matrix(1,0,0,-1,0,352.0204)" d="M90.2 69.93446H559.8309V344.82038H90.2Z"/>
</clipPath>
<clipPath id="clip_103">
<path transform="matrix(1,0,0,-1,387.909,168.66391)" d="M-9.5-9.5H9.5V9.5H-9.5Z"/>
</clipPath>
<clipPath id="clip_104">
<path transform="matrix(1,0,0,-1,456.29689,207.9801)" d="M-9.5-9.5H9.5V9.5H-9.5Z"/>
</clipPath>
<clipPath id="clip_105">
<path transform="matrix(1,0,0,-1,485.95005,225.8383)" d="M-9.5-9.5H9.5V9.5H-9.5Z"/>
</clipPath>
<clipPath id="clip_106">
<path transform="matrix(1,0,0,-1,513.22836,249.1835)" d="M-9.5-9.5H9.5V9.5H-9.5Z"/>
</clipPath>
<clipPath id="clip_107">
<path transform="matrix(1,0,0,-1,538.4841,265.706)" d="M-9.5-9.5H9.5V9.5H-9.5Z"/>
</clipPath>
<clipPath id="clip_108">
<path transform="matrix(1,0,0,-1,0,352.0204)" d="M90.2 69.93446H559.8309V344.82038H90.2Z"/>
</clipPath>
<clipPath id="clip_109">
<path transform="matrix(1,0,0,-1,387.909,52.89392)" d="M-9.5-9.5H9.5V9.5H-9.5Z"/>
</clipPath>
<clipPath id="clip_110">
<path transform="matrix(1,0,0,-1,456.29689,57.437616)" d="M-9.5-9.5H9.5V9.5H-9.5Z"/>
</clipPath>
<clipPath id="clip_111">
<path transform="matrix(1,0,0,-1,485.95005,72.24628)" d="M-9.5-9.5H9.5V9.5H-9.5Z"/>
</clipPath>
<clipPath id="clip_112">
<path transform="matrix(1,0,0,-1,513.22836,86.01426)" d="M-9.5-9.5H9.5V9.5H-9.5Z"/>
</clipPath>
<clipPath id="clip_113">
<path transform="matrix(1,0,0,-1,538.4841,105.59016)" d="M-9.5-9.5H9.5V9.5H-9.5Z"/>
</clipPath>
<clipPath id="clip_114">
<path transform="matrix(1,0,0,-1,0,352.0204)" d="M90.2 69.93446H559.8309V344.82038H90.2Z"/>
</clipPath>
<clipPath id="clip_115">
<path transform="matrix(.012,0,0,-.012,134.6,233.44217)" d="M-1016-351H1660V1068H-1016Z"/>
</clipPath>
<clipPath id="clip_116">
<path transform="matrix(.012,0,0,-.012,134.6,251.06717)" d="M-1016-351H1660V1068H-1016Z"/>
</clipPath>
<clipPath id="clip_117">
<path transform="matrix(.012,0,0,-.012,134.6,268.69218)" d="M-1016-351H1660V1068H-1016Z"/>
</clipPath>
<clipPath id="clip_118">
<path transform="matrix(.0084,0,0,-.0084,372.45936,246.92342)" d="M-1021-463H1794V1233H-1021Z"/>
</clipPath>
<clipPath id="clip_119">
<path transform="matrix(.012,0,0,-.012,406.19883,251.51717)" d="M-1021-463H1794V1233H-1021Z"/>
</clipPath>
</defs>
<path transform="matrix(1,0,0,-1,0,352.0204)" d="M0 0H567.0309V352.0204H0Z" fill="#ffffff"/>
<path transform="matrix(1,0,0,-1,0,352.0204)" d="M90.2 69.93446H559.8309V344.82038H90.2Z" fill="#ffffff"/>
<g clip-path="url(#clip_1)">
<path transform="matrix(1,0,0,-1,0,352.0204)" stroke-width="1.2" stroke-linecap="butt" stroke-dasharray="4.44,1.92" stroke-linejoin="round" fill="none" stroke="#b0b0b0" stroke-opacity=".6" d="M111.54686 69.93446V344.82038"/>
</g>
<path transform="matrix(1,0,0,-1,0,352.0204)" d="M111.54686 69.93446V66.43446"/>
<path transform="matrix(1,0,0,-1,0,352.0204)" stroke-width=".8" stroke-linecap="butt" stroke-linejoin="round" fill="none" stroke="#000000" d="M111.54686 69.93446V66.43446"/>
<text xml:space="preserve" transform="matrix(.8660254 -.5 .5 .8660254 108.80119 308.6116)" font-size="20" font-family="DejaVuSans"><tspan y="0" x="0">4</tspan></text>
<g clip-path="url(#clip_2)">
<path transform="matrix(1,0,0,-1,0,352.0204)" stroke-width="1.2" stroke-linecap="butt" stroke-dasharray="4.44,1.92" stroke-linejoin="round" fill="none" stroke="#b0b0b0" stroke-opacity=".6" d="M187.59339 69.93446V344.82038"/>
</g>
<path transform="matrix(1,0,0,-1,0,352.0204)" d="M187.59339 69.93446V66.43446"/>
<path transform="matrix(1,0,0,-1,0,352.0204)" stroke-width=".8" stroke-linecap="butt" stroke-linejoin="round" fill="none" stroke="#000000" d="M187.59339 69.93446V66.43446"/>
<text xml:space="preserve" transform="matrix(.8660254 -.5 .5 .8660254 184.84774 308.6116)" font-size="20" font-family="DejaVuSans"><tspan y="0" x="0">5</tspan></text>
<g clip-path="url(#clip_3)">
<path transform="matrix(1,0,0,-1,0,352.0204)" stroke-width="1.2" stroke-linecap="butt" stroke-dasharray="4.44,1.92" stroke-linejoin="round" fill="none" stroke="#b0b0b0" stroke-opacity=".6" d="M302.26194 69.93446V344.82038"/>
</g>
<path transform="matrix(1,0,0,-1,0,352.0204)" d="M302.26194 69.93446V66.43446"/>
<path transform="matrix(1,0,0,-1,0,352.0204)" stroke-width=".8" stroke-linecap="butt" stroke-linejoin="round" fill="none" stroke="#000000" d="M302.26194 69.93446V66.43446"/>
<text xml:space="preserve" transform="matrix(.8660254 -.5 .5 .8660254 299.51628 308.6116)" font-size="20" font-family="DejaVuSans"><tspan y="0" x="0">7</tspan></text>
<g clip-path="url(#clip_4)">
<path transform="matrix(1,0,0,-1,0,352.0204)" stroke-width="1.2" stroke-linecap="butt" stroke-dasharray="4.44,1.92" stroke-linejoin="round" fill="none" stroke="#b0b0b0" stroke-opacity=".6" d="M347.76896 69.93446V344.82038"/>
</g>
<path transform="matrix(1,0,0,-1,0,352.0204)" d="M347.76896 69.93446V66.43446"/>
<path transform="matrix(1,0,0,-1,0,352.0204)" stroke-width=".8" stroke-linecap="butt" stroke-linejoin="round" fill="none" stroke="#000000" d="M347.76896 69.93446V66.43446"/>
<text xml:space="preserve" transform="matrix(.8660254 -.5 .5 .8660254 345.0233 308.6116)" font-size="20" font-family="DejaVuSans"><tspan y="0" x="0">8</tspan></text>
<g clip-path="url(#clip_5)">
<path transform="matrix(1,0,0,-1,0,352.0204)" stroke-width="1.2" stroke-linecap="butt" stroke-dasharray="4.44,1.92" stroke-linejoin="round" fill="none" stroke="#b0b0b0" stroke-opacity=".6" d="M387.909 69.93446V344.82038"/>
</g>
<path transform="matrix(1,0,0,-1,0,352.0204)" d="M387.909 69.93446V66.43446"/>
<path transform="matrix(1,0,0,-1,0,352.0204)" stroke-width=".8" stroke-linecap="butt" stroke-linejoin="round" fill="none" stroke="#000000" d="M387.909 69.93446V66.43446"/>
<text xml:space="preserve" transform="matrix(.8660254 -.5 .5 .8660254 385.16334 308.6116)" font-size="20" font-family="DejaVuSans"><tspan y="0" x="0">9</tspan></text>
<g clip-path="url(#clip_6)">
<path transform="matrix(1,0,0,-1,0,352.0204)" stroke-width="1.2" stroke-linecap="butt" stroke-dasharray="4.44,1.92" stroke-linejoin="round" fill="none" stroke="#b0b0b0" stroke-opacity=".6" d="M456.29689 69.93446V344.82038"/>
</g>
<path transform="matrix(1,0,0,-1,0,352.0204)" d="M456.29689 69.93446V66.43446"/>
<path transform="matrix(1,0,0,-1,0,352.0204)" stroke-width=".8" stroke-linecap="butt" stroke-linejoin="round" fill="none" stroke="#000000" d="M456.29689 69.93446V66.43446"/>
<text xml:space="preserve" transform="matrix(.8660254 -.5 .5 .8660254 448.04383 314.97099)" font-size="20" font-family="DejaVuSans"><tspan y="0" x="0 12.720001">11</tspan></text>
<g clip-path="url(#clip_7)">
<path transform="matrix(1,0,0,-1,0,352.0204)" stroke-width="1.2" stroke-linecap="butt" stroke-dasharray="4.44,1.92" stroke-linejoin="round" fill="none" stroke="#b0b0b0" stroke-opacity=".6" d="M485.95005 69.93446V344.82038"/>
</g>
<path transform="matrix(1,0,0,-1,0,352.0204)" d="M485.95005 69.93446V66.43446"/>
<path transform="matrix(1,0,0,-1,0,352.0204)" stroke-width=".8" stroke-linecap="butt" stroke-linejoin="round" fill="none" stroke="#000000" d="M485.95005 69.93446V66.43446"/>
<text xml:space="preserve" transform="matrix(.8660254 -.5 .5 .8660254 477.697 314.97099)" font-size="20" font-family="DejaVuSans"><tspan y="0" x="0 12.720001">12</tspan></text>
<g clip-path="url(#clip_8)">
<path transform="matrix(1,0,0,-1,0,352.0204)" stroke-width="1.2" stroke-linecap="butt" stroke-dasharray="4.44,1.92" stroke-linejoin="round" fill="none" stroke="#b0b0b0" stroke-opacity=".6" d="M513.2283 69.93446V344.82038"/>
</g>
<path transform="matrix(1,0,0,-1,0,352.0204)" d="M513.2283 69.93446V66.43446"/>
<path transform="matrix(1,0,0,-1,0,352.0204)" stroke-width=".8" stroke-linecap="butt" stroke-linejoin="round" fill="none" stroke="#000000" d="M513.2283 69.93446V66.43446"/>
<text xml:space="preserve" transform="matrix(.8660254 -.5 .5 .8660254 504.97526 314.97099)" font-size="20" font-family="DejaVuSans"><tspan y="0" x="0 12.720001">13</tspan></text>
<g clip-path="url(#clip_9)">
<path transform="matrix(1,0,0,-1,0,352.0204)" stroke-width="1.2" stroke-linecap="butt" stroke-dasharray="4.44,1.92" stroke-linejoin="round" fill="none" stroke="#b0b0b0" stroke-opacity=".6" d="M538.484 69.93446V344.82038"/>
</g>
<path transform="matrix(1,0,0,-1,0,352.0204)" d="M538.484 69.93446V66.43446"/>
<path transform="matrix(1,0,0,-1,0,352.0204)" stroke-width=".8" stroke-linecap="butt" stroke-linejoin="round" fill="none" stroke="#000000" d="M538.484 69.93446V66.43446"/>
<text xml:space="preserve" transform="matrix(.8660254 -.5 .5 .8660254 530.231 314.97099)" font-size="20" font-family="DejaVuSans"><tspan y="0" x="0 12.720001">14</tspan></text>
<text xml:space="preserve" transform="matrix(1 0 -0 1 317.51545 340.03913)" font-size="23" font-family="DejaVuSans"><tspan y="-.53125" x="0">d</tspan></text>
<g clip-path="url(#clip_10)">
<path transform="matrix(1,0,0,-1,0,352.0204)" stroke-width="1.2" stroke-linecap="butt" stroke-dasharray="4.44,1.92" stroke-linejoin="round" fill="none" stroke="#b0b0b0" stroke-opacity=".6" d="M90.2 98.370517H559.8309"/>
</g>
<path transform="matrix(1,0,0,-1,0,352.0204)" d="M90.2 98.370517H86.7"/>
<path transform="matrix(1,0,0,-1,0,352.0204)" stroke-width=".8" stroke-linecap="butt" stroke-linejoin="round" fill="none" stroke="#000000" d="M90.2 98.370517H86.7"/>
<text xml:space="preserve" transform="matrix(1 0 -0 1 36.2 261.57176)" font-size="20" font-family="DejaVuSans"><tspan y="-.953125" x="0 12.724609">10</tspan></text>
<text xml:space="preserve" transform="matrix(1 0 -0 1 36.2 261.57176)" font-size="14" font-family="DejaVuSans"><tspan y="-8.609375" x="37.371095">3</tspan></text>
<g clip-path="url(#clip_11)">
<path transform="matrix(.014,0,0,-.014,61.840627,252.96237)" d="M106 355H732V272H106V355Z"/>
</g>
<g clip-path="url(#clip_12)">
<path transform="matrix(1,0,0,-1,0,352.0204)" stroke-width="1.2" stroke-linecap="butt" stroke-dasharray="4.44,1.92" stroke-linejoin="round" fill="none" stroke="#b0b0b0" stroke-opacity=".6" d="M90.2 176.86589H559.8309"/>
</g>
<path transform="matrix(1,0,0,-1,0,352.0204)" d="M90.2 176.86589H86.7"/>
<path transform="matrix(1,0,0,-1,0,352.0204)" stroke-width=".8" stroke-linecap="butt" stroke-linejoin="round" fill="none" stroke="#000000" d="M90.2 176.86589H86.7"/>
<text xml:space="preserve" transform="matrix(1 0 -0 1 36.2 183.07637)" font-size="20" font-family="DejaVuSans"><tspan y="-.953125" x="0 12.724609">10</tspan></text>
<text xml:space="preserve" transform="matrix(1 0 -0 1 36.2 183.07637)" font-size="14" font-family="DejaVuSans"><tspan y="-8.609375" x="37.371095">2</tspan></text>
<g clip-path="url(#clip_13)">
<path transform="matrix(.014,0,0,-.014,61.840627,174.467)" d="M106 355H732V272H106V355Z"/>
</g>
<g clip-path="url(#clip_14)">
<path transform="matrix(1,0,0,-1,0,352.0204)" stroke-width="1.2" stroke-linecap="butt" stroke-dasharray="4.44,1.92" stroke-linejoin="round" fill="none" stroke="#b0b0b0" stroke-opacity=".6" d="M90.2 255.36127H559.8309"/>
</g>
<path transform="matrix(1,0,0,-1,0,352.0204)" d="M90.2 255.36127H86.7"/>
<path transform="matrix(1,0,0,-1,0,352.0204)" stroke-width=".8" stroke-linecap="butt" stroke-linejoin="round" fill="none" stroke="#000000" d="M90.2 255.36127H86.7"/>
<text xml:space="preserve" transform="matrix(1 0 -0 1 36.2 104.26068)" font-size="20" font-family="DejaVuSans"><tspan y="-.1390625" x="0 12.724609">10</tspan></text>
<text xml:space="preserve" transform="matrix(1 0 -0 1 36.2 104.26068)" font-size="14" font-family="DejaVuSans"><tspan y="-7.7953126" x="37.371095">1</tspan></text>
<g clip-path="url(#clip_15)">
<path transform="matrix(.014,0,0,-.014,61.840627,96.46537)" d="M106 355H732V272H106V355Z"/>
</g>
<g clip-path="url(#clip_16)">
<path transform="matrix(1,0,0,-1,0,352.0204)" stroke-width="1.2" stroke-linecap="butt" stroke-dasharray="4.44,1.92" stroke-linejoin="round" fill="none" stroke="#b0b0b0" stroke-opacity=".6" d="M90.2 333.85664H559.8309"/>
</g>
<path transform="matrix(1,0,0,-1,0,352.0204)" d="M90.2 333.85664H86.7"/>
<path transform="matrix(1,0,0,-1,0,352.0204)" stroke-width=".8" stroke-linecap="butt" stroke-linejoin="round" fill="none" stroke="#000000" d="M90.2 333.85664H86.7"/>
<text xml:space="preserve" transform="matrix(1 0 -0 1 47.2 26.085633)" font-size="20" font-family="DejaVuSans"><tspan y="-.953125" x="0 12.724609">10</tspan></text>
<text xml:space="preserve" transform="matrix(1 0 -0 1 47.2 26.085633)" font-size="14" font-family="DejaVuSans"><tspan y="-8.609375" x="25.640625">0</tspan></text>
<g clip-path="url(#clip_17)">
<path transform="matrix(1,0,0,-1,0,352.0204)" stroke-width="1.2" stroke-linecap="butt" stroke-dasharray="4.44,1.92" stroke-linejoin="round" fill="none" stroke="#b0b0b0" stroke-opacity=".6" d="M90.2 74.74105H559.8309"/>
</g>
<path transform="matrix(1,0,0,-1,0,352.0204)" d="M90.2 74.74105H88.2"/>
<path transform="matrix(1,0,0,-1,0,352.0204)" stroke-width=".6" stroke-linecap="butt" stroke-linejoin="round" fill="none" stroke="#000000" d="M90.2 74.74105H88.2"/>
<g clip-path="url(#clip_18)">
<path transform="matrix(1,0,0,-1,0,352.0204)" stroke-width="1.2" stroke-linecap="butt" stroke-dasharray="4.44,1.92" stroke-linejoin="round" fill="none" stroke="#b0b0b0" stroke-opacity=".6" d="M90.2 80.956409H559.8309"/>
</g>
<path transform="matrix(1,0,0,-1,0,352.0204)" d="M90.2 80.956409H88.2"/>
<path transform="matrix(1,0,0,-1,0,352.0204)" stroke-width=".6" stroke-linecap="butt" stroke-linejoin="round" fill="none" stroke="#000000" d="M90.2 80.956409H88.2"/>
<g clip-path="url(#clip_19)">
<path transform="matrix(1,0,0,-1,0,352.0204)" stroke-width="1.2" stroke-linecap="butt" stroke-dasharray="4.44,1.92" stroke-linejoin="round" fill="none" stroke="#b0b0b0" stroke-opacity=".6" d="M90.2 86.211429H559.8309"/>
</g>
<path transform="matrix(1,0,0,-1,0,352.0204)" d="M90.2 86.211429H88.2"/>
<path transform="matrix(1,0,0,-1,0,352.0204)" stroke-width=".6" stroke-linecap="butt" stroke-linejoin="round" fill="none" stroke="#000000" d="M90.2 86.211429H88.2"/>
<g clip-path="url(#clip_20)">
<path transform="matrix(1,0,0,-1,0,352.0204)" stroke-width="1.2" stroke-linecap="butt" stroke-dasharray="4.44,1.92" stroke-linejoin="round" fill="none" stroke="#b0b0b0" stroke-opacity=".6" d="M90.2 90.76352H559.8309"/>
</g>
<path transform="matrix(1,0,0,-1,0,352.0204)" d="M90.2 90.76352H88.2"/>
<path transform="matrix(1,0,0,-1,0,352.0204)" stroke-width=".6" stroke-linecap="butt" stroke-linejoin="round" fill="none" stroke="#000000" d="M90.2 90.76352H88.2"/>
<g clip-path="url(#clip_21)">
<path transform="matrix(1,0,0,-1,0,352.0204)" stroke-width="1.2" stroke-linecap="butt" stroke-dasharray="4.44,1.92" stroke-linejoin="round" fill="none" stroke="#b0b0b0" stroke-opacity=".6" d="M90.2 94.778759H559.8309"/>
</g>
<path transform="matrix(1,0,0,-1,0,352.0204)" d="M90.2 94.778759H88.2"/>
<path transform="matrix(1,0,0,-1,0,352.0204)" stroke-width=".6" stroke-linecap="butt" stroke-linejoin="round" fill="none" stroke="#000000" d="M90.2 94.778759H88.2"/>
<g clip-path="url(#clip_22)">
<path transform="matrix(1,0,0,-1,0,352.0204)" stroke-width="1.2" stroke-linecap="butt" stroke-dasharray="4.44,1.92" stroke-linejoin="round" fill="none" stroke="#b0b0b0" stroke-opacity=".6" d="M90.2 121.99997H559.8309"/>
</g>
<path transform="matrix(1,0,0,-1,0,352.0204)" d="M90.2 121.99997H88.2"/>
<path transform="matrix(1,0,0,-1,0,352.0204)" stroke-width=".6" stroke-linecap="butt" stroke-linejoin="round" fill="none" stroke="#000000" d="M90.2 121.99997H88.2"/>
<g clip-path="url(#clip_23)">
<path transform="matrix(1,0,0,-1,0,352.0204)" stroke-width="1.2" stroke-linecap="butt" stroke-dasharray="4.44,1.92" stroke-linejoin="round" fill="none" stroke="#b0b0b0" stroke-opacity=".6" d="M90.2 135.82233H559.8309"/>
</g>
<path transform="matrix(1,0,0,-1,0,352.0204)" d="M90.2 135.82233H88.2"/>
<path transform="matrix(1,0,0,-1,0,352.0204)" stroke-width=".6" stroke-linecap="butt" stroke-linejoin="round" fill="none" stroke="#000000" d="M90.2 135.82233H88.2"/>
<g clip-path="url(#clip_24)">
<path transform="matrix(1,0,0,-1,0,352.0204)" stroke-width="1.2" stroke-linecap="butt" stroke-dasharray="4.44,1.92" stroke-linejoin="round" fill="none" stroke="#b0b0b0" stroke-opacity=".6" d="M90.2 145.62944H559.8309"/>
</g>
<path transform="matrix(1,0,0,-1,0,352.0204)" d="M90.2 145.62944H88.2"/>
<path transform="matrix(1,0,0,-1,0,352.0204)" stroke-width=".6" stroke-linecap="butt" stroke-linejoin="round" fill="none" stroke="#000000" d="M90.2 145.62944H88.2"/>
<g clip-path="url(#clip_25)">
<path transform="matrix(1,0,0,-1,0,352.0204)" stroke-width="1.2" stroke-linecap="butt" stroke-dasharray="4.44,1.92" stroke-linejoin="round" fill="none" stroke="#b0b0b0" stroke-opacity=".6" d="M90.2 153.23642H559.8309"/>
</g>
<path transform="matrix(1,0,0,-1,0,352.0204)" d="M90.2 153.23642H88.2"/>
<path transform="matrix(1,0,0,-1,0,352.0204)" stroke-width=".6" stroke-linecap="butt" stroke-linejoin="round" fill="none" stroke="#000000" d="M90.2 153.23642H88.2"/>
<g clip-path="url(#clip_26)">
<path transform="matrix(1,0,0,-1,0,352.0204)" stroke-width="1.2" stroke-linecap="butt" stroke-dasharray="4.44,1.92" stroke-linejoin="round" fill="none" stroke="#b0b0b0" stroke-opacity=".6" d="M90.2 159.45178H559.8309"/>
</g>
<path transform="matrix(1,0,0,-1,0,352.0204)" d="M90.2 159.45178H88.2"/>
<path transform="matrix(1,0,0,-1,0,352.0204)" stroke-width=".6" stroke-linecap="butt" stroke-linejoin="round" fill="none" stroke="#000000" d="M90.2 159.45178H88.2"/>
<g clip-path="url(#clip_27)">
<path transform="matrix(1,0,0,-1,0,352.0204)" stroke-width="1.2" stroke-linecap="butt" stroke-dasharray="4.44,1.92" stroke-linejoin="round" fill="none" stroke="#b0b0b0" stroke-opacity=".6" d="M90.2 164.7068H559.8309"/>
</g>
<path transform="matrix(1,0,0,-1,0,352.0204)" d="M90.2 164.7068H88.2"/>
<path transform="matrix(1,0,0,-1,0,352.0204)" stroke-width=".6" stroke-linecap="butt" stroke-linejoin="round" fill="none" stroke="#000000" d="M90.2 164.7068H88.2"/>
<g clip-path="url(#clip_28)">
<path transform="matrix(1,0,0,-1,0,352.0204)" stroke-width="1.2" stroke-linecap="butt" stroke-dasharray="4.44,1.92" stroke-linejoin="round" fill="none" stroke="#b0b0b0" stroke-opacity=".6" d="M90.2 169.2589H559.8309"/>
</g>
<path transform="matrix(1,0,0,-1,0,352.0204)" d="M90.2 169.2589H88.2"/>
<path transform="matrix(1,0,0,-1,0,352.0204)" stroke-width=".6" stroke-linecap="butt" stroke-linejoin="round" fill="none" stroke="#000000" d="M90.2 169.2589H88.2"/>
<g clip-path="url(#clip_29)">
<path transform="matrix(1,0,0,-1,0,352.0204)" stroke-width="1.2" stroke-linecap="butt" stroke-dasharray="4.44,1.92" stroke-linejoin="round" fill="none" stroke="#b0b0b0" stroke-opacity=".6" d="M90.2 173.27414H559.8309"/>
</g>
<path transform="matrix(1,0,0,-1,0,352.0204)" d="M90.2 173.27414H88.2"/>
<path transform="matrix(1,0,0,-1,0,352.0204)" stroke-width=".6" stroke-linecap="butt" stroke-linejoin="round" fill="none" stroke="#000000" d="M90.2 173.27414H88.2"/>
<g clip-path="url(#clip_30)">
<path transform="matrix(1,0,0,-1,0,352.0204)" stroke-width="1.2" stroke-linecap="butt" stroke-dasharray="4.44,1.92" stroke-linejoin="round" fill="none" stroke="#b0b0b0" stroke-opacity=".6" d="M90.2 200.49535H559.8309"/>
</g>
<path transform="matrix(1,0,0,-1,0,352.0204)" d="M90.2 200.49535H88.2"/>
<path transform="matrix(1,0,0,-1,0,352.0204)" stroke-width=".6" stroke-linecap="butt" stroke-linejoin="round" fill="none" stroke="#000000" d="M90.2 200.49535H88.2"/>
<g clip-path="url(#clip_31)">
<path transform="matrix(1,0,0,-1,0,352.0204)" stroke-width="1.2" stroke-linecap="butt" stroke-dasharray="4.44,1.92" stroke-linejoin="round" fill="none" stroke="#b0b0b0" stroke-opacity=".6" d="M90.2 214.3177H559.8309"/>
</g>
<path transform="matrix(1,0,0,-1,0,352.0204)" d="M90.2 214.3177H88.2"/>
<path transform="matrix(1,0,0,-1,0,352.0204)" stroke-width=".6" stroke-linecap="butt" stroke-linejoin="round" fill="none" stroke="#000000" d="M90.2 214.3177H88.2"/>
<g clip-path="url(#clip_32)">
<path transform="matrix(1,0,0,-1,0,352.0204)" stroke-width="1.2" stroke-linecap="butt" stroke-dasharray="4.44,1.92" stroke-linejoin="round" fill="none" stroke="#b0b0b0" stroke-opacity=".6" d="M90.2 224.12482H559.8309"/>
</g>
<path transform="matrix(1,0,0,-1,0,352.0204)" d="M90.2 224.12482H88.2"/>
<path transform="matrix(1,0,0,-1,0,352.0204)" stroke-width=".6" stroke-linecap="butt" stroke-linejoin="round" fill="none" stroke="#000000" d="M90.2 224.12482H88.2"/>
<g clip-path="url(#clip_33)">
<path transform="matrix(1,0,0,-1,0,352.0204)" stroke-width="1.2" stroke-linecap="butt" stroke-dasharray="4.44,1.92" stroke-linejoin="round" fill="none" stroke="#b0b0b0" stroke-opacity=".6" d="M90.2 231.7318H559.8309"/>
</g>
<path transform="matrix(1,0,0,-1,0,352.0204)" d="M90.2 231.7318H88.2"/>
<path transform="matrix(1,0,0,-1,0,352.0204)" stroke-width=".6" stroke-linecap="butt" stroke-linejoin="round" fill="none" stroke="#000000" d="M90.2 231.7318H88.2"/>
<g clip-path="url(#clip_34)">
<path transform="matrix(1,0,0,-1,0,352.0204)" stroke-width="1.2" stroke-linecap="butt" stroke-dasharray="4.44,1.92" stroke-linejoin="round" fill="none" stroke="#b0b0b0" stroke-opacity=".6" d="M90.2 237.94716H559.8309"/>
</g>
<path transform="matrix(1,0,0,-1,0,352.0204)" d="M90.2 237.94716H88.2"/>
<path transform="matrix(1,0,0,-1,0,352.0204)" stroke-width=".6" stroke-linecap="butt" stroke-linejoin="round" fill="none" stroke="#000000" d="M90.2 237.94716H88.2"/>
<g clip-path="url(#clip_35)">
<path transform="matrix(1,0,0,-1,0,352.0204)" stroke-width="1.2" stroke-linecap="butt" stroke-dasharray="4.44,1.92" stroke-linejoin="round" fill="none" stroke="#b0b0b0" stroke-opacity=".6" d="M90.2 243.20218H559.8309"/>
</g>
<path transform="matrix(1,0,0,-1,0,352.0204)" d="M90.2 243.20218H88.2"/>
<path transform="matrix(1,0,0,-1,0,352.0204)" stroke-width=".6" stroke-linecap="butt" stroke-linejoin="round" fill="none" stroke="#000000" d="M90.2 243.20218H88.2"/>
<g clip-path="url(#clip_36)">
<path transform="matrix(1,0,0,-1,0,352.0204)" stroke-width="1.2" stroke-linecap="butt" stroke-dasharray="4.44,1.92" stroke-linejoin="round" fill="none" stroke="#b0b0b0" stroke-opacity=".6" d="M90.2 247.75428H559.8309"/>
</g>
<path transform="matrix(1,0,0,-1,0,352.0204)" d="M90.2 247.75428H88.2"/>
<path transform="matrix(1,0,0,-1,0,352.0204)" stroke-width=".6" stroke-linecap="butt" stroke-linejoin="round" fill="none" stroke="#000000" d="M90.2 247.75428H88.2"/>
<g clip-path="url(#clip_37)">
<path transform="matrix(1,0,0,-1,0,352.0204)" stroke-width="1.2" stroke-linecap="butt" stroke-dasharray="4.44,1.92" stroke-linejoin="round" fill="none" stroke="#b0b0b0" stroke-opacity=".6" d="M90.2 251.76952H559.8309"/>
</g>
<path transform="matrix(1,0,0,-1,0,352.0204)" d="M90.2 251.76952H88.2"/>
<path transform="matrix(1,0,0,-1,0,352.0204)" stroke-width=".6" stroke-linecap="butt" stroke-linejoin="round" fill="none" stroke="#000000" d="M90.2 251.76952H88.2"/>
<g clip-path="url(#clip_38)">
<path transform="matrix(1,0,0,-1,0,352.0204)" stroke-width="1.2" stroke-linecap="butt" stroke-dasharray="4.44,1.92" stroke-linejoin="round" fill="none" stroke="#b0b0b0" stroke-opacity=".6" d="M90.2 278.99073H559.8309"/>
</g>
<path transform="matrix(1,0,0,-1,0,352.0204)" d="M90.2 278.99073H88.2"/>
<path transform="matrix(1,0,0,-1,0,352.0204)" stroke-width=".6" stroke-linecap="butt" stroke-linejoin="round" fill="none" stroke="#000000" d="M90.2 278.99073H88.2"/>
<g clip-path="url(#clip_39)">
<path transform="matrix(1,0,0,-1,0,352.0204)" stroke-width="1.2" stroke-linecap="butt" stroke-dasharray="4.44,1.92" stroke-linejoin="round" fill="none" stroke="#b0b0b0" stroke-opacity=".6" d="M90.2 292.81309H559.8309"/>
</g>
<path transform="matrix(1,0,0,-1,0,352.0204)" d="M90.2 292.81309H88.2"/>
<path transform="matrix(1,0,0,-1,0,352.0204)" stroke-width=".6" stroke-linecap="butt" stroke-linejoin="round" fill="none" stroke="#000000" d="M90.2 292.81309H88.2"/>
<g clip-path="url(#clip_40)">
<path transform="matrix(1,0,0,-1,0,352.0204)" stroke-width="1.2" stroke-linecap="butt" stroke-dasharray="4.44,1.92" stroke-linejoin="round" fill="none" stroke="#b0b0b0" stroke-opacity=".6" d="M90.2 302.62019H559.8309"/>
</g>
<path transform="matrix(1,0,0,-1,0,352.0204)" d="M90.2 302.62019H88.2"/>
<path transform="matrix(1,0,0,-1,0,352.0204)" stroke-width=".6" stroke-linecap="butt" stroke-linejoin="round" fill="none" stroke="#000000" d="M90.2 302.62019H88.2"/>
<g clip-path="url(#clip_41)">
<path transform="matrix(1,0,0,-1,0,352.0204)" stroke-width="1.2" stroke-linecap="butt" stroke-dasharray="4.44,1.92" stroke-linejoin="round" fill="none" stroke="#b0b0b0" stroke-opacity=".6" d="M90.2 310.22718H559.8309"/>
</g>
<path transform="matrix(1,0,0,-1,0,352.0204)" d="M90.2 310.22718H88.2"/>
<path transform="matrix(1,0,0,-1,0,352.0204)" stroke-width=".6" stroke-linecap="butt" stroke-linejoin="round" fill="none" stroke="#000000" d="M90.2 310.22718H88.2"/>
<g clip-path="url(#clip_42)">
<path transform="matrix(1,0,0,-1,0,352.0204)" stroke-width="1.2" stroke-linecap="butt" stroke-dasharray="4.44,1.92" stroke-linejoin="round" fill="none" stroke="#b0b0b0" stroke-opacity=".6" d="M90.2 316.44255H559.8309"/>
</g>
<path transform="matrix(1,0,0,-1,0,352.0204)" d="M90.2 316.44255H88.2"/>
<path transform="matrix(1,0,0,-1,0,352.0204)" stroke-width=".6" stroke-linecap="butt" stroke-linejoin="round" fill="none" stroke="#000000" d="M90.2 316.44255H88.2"/>
<g clip-path="url(#clip_43)">
<path transform="matrix(1,0,0,-1,0,352.0204)" stroke-width="1.2" stroke-linecap="butt" stroke-dasharray="4.44,1.92" stroke-linejoin="round" fill="none" stroke="#b0b0b0" stroke-opacity=".6" d="M90.2 321.69755H559.8309"/>
</g>
<path transform="matrix(1,0,0,-1,0,352.0204)" d="M90.2 321.69755H88.2"/>
<path transform="matrix(1,0,0,-1,0,352.0204)" stroke-width=".6" stroke-linecap="butt" stroke-linejoin="round" fill="none" stroke="#000000" d="M90.2 321.69755H88.2"/>
<g clip-path="url(#clip_44)">
<path transform="matrix(1,0,0,-1,0,352.0204)" stroke-width="1.2" stroke-linecap="butt" stroke-dasharray="4.44,1.92" stroke-linejoin="round" fill="none" stroke="#b0b0b0" stroke-opacity=".6" d="M90.2 326.24967H559.8309"/>
</g>
<path transform="matrix(1,0,0,-1,0,352.0204)" d="M90.2 326.24967H88.2"/>
<path transform="matrix(1,0,0,-1,0,352.0204)" stroke-width=".6" stroke-linecap="butt" stroke-linejoin="round" fill="none" stroke="#000000" d="M90.2 326.24967H88.2"/>
<g clip-path="url(#clip_45)">
<path transform="matrix(1,0,0,-1,0,352.0204)" stroke-width="1.2" stroke-linecap="butt" stroke-dasharray="4.44,1.92" stroke-linejoin="round" fill="none" stroke="#b0b0b0" stroke-opacity=".6" d="M90.2 330.2649H559.8309"/>
</g>
<path transform="matrix(1,0,0,-1,0,352.0204)" d="M90.2 330.2649H88.2"/>
<path transform="matrix(1,0,0,-1,0,352.0204)" stroke-width=".6" stroke-linecap="butt" stroke-linejoin="round" fill="none" stroke="#000000" d="M90.2 330.2649H88.2"/>
<text xml:space="preserve" transform="matrix(0 -1 1 0 26.996876 152.14296)" font-size="25" font-family="DejaVuSans"><tspan y="-.21875" x="0">F</tspan></text>
<path transform="matrix(0,-1,-1,-0,26.996876,152.14296)" d="M0 21.875H14.379883V23.4375H0Z"/>
<g clip-path="url(#clip_46)">
<path transform="matrix(1,0,0,-1,0,352.0204)" stroke-width=".9" stroke-linecap="butt" stroke-linejoin="round" fill="none" stroke="#bfd3e6" d="M111.54686 272.60713V279.82243"/>
<path transform="matrix(1,0,0,-1,0,352.0204)" stroke-width=".9" stroke-linecap="butt" stroke-linejoin="round" fill="none" stroke="#bfd3e6" d="M187.59339 258.22917V266.6539"/>
<path transform="matrix(1,0,0,-1,0,352.0204)" stroke-width=".9" stroke-linecap="butt" stroke-linejoin="round" fill="none" stroke="#bfd3e6" d="M302.26194 224.98004V228.46016"/>
</g>
<g clip-path="url(#clip_47)">
<path transform="matrix(1,0,0,-1,0,352.0204)" d="M119.54686 272.60713H103.54686" fill="#bfd3e6"/>
<path transform="matrix(1,0,0,-1,0,352.0204)" stroke-width="1" stroke-linecap="butt" stroke-linejoin="round" fill="none" stroke="#bfd3e6" d="M119.54686 272.60713H103.54686"/>
<path transform="matrix(1,0,0,-1,0,352.0204)" d="M195.59339 258.22917H179.59339" fill="#bfd3e6"/>
<path transform="matrix(1,0,0,-1,0,352.0204)" stroke-width="1" stroke-linecap="butt" stroke-linejoin="round" fill="none" stroke="#bfd3e6" d="M195.59339 258.22917H179.59339"/>
<path transform="matrix(1,0,0,-1,0,352.0204)" d="M310.26194 224.98004H294.26194" fill="#bfd3e6"/>
<path transform="matrix(1,0,0,-1,0,352.0204)" stroke-width="1" stroke-linecap="butt" stroke-linejoin="round" fill="none" stroke="#bfd3e6" d="M310.26194 224.98004H294.26194"/>
</g>
<g clip-path="url(#clip_48)">
<path transform="matrix(1,0,0,-1,0,352.0204)" d="M119.54686 279.82243H103.54686" fill="#bfd3e6"/>
<path transform="matrix(1,0,0,-1,0,352.0204)" stroke-width="1" stroke-linecap="butt" stroke-linejoin="round" fill="none" stroke="#bfd3e6" d="M119.54686 279.82243H103.54686"/>
<path transform="matrix(1,0,0,-1,0,352.0204)" d="M195.59339 266.6539H179.59339" fill="#bfd3e6"/>
<path transform="matrix(1,0,0,-1,0,352.0204)" stroke-width="1" stroke-linecap="butt" stroke-linejoin="round" fill="none" stroke="#bfd3e6" d="M195.59339 266.6539H179.59339"/>
<path transform="matrix(1,0,0,-1,0,352.0204)" d="M310.26194 228.46016H294.26194" fill="#bfd3e6"/>
<path transform="matrix(1,0,0,-1,0,352.0204)" stroke-width="1" stroke-linecap="butt" stroke-linejoin="round" fill="none" stroke="#bfd3e6" d="M310.26194 228.46016H294.26194"/>
</g>
<g clip-path="url(#clip_49)">
<path transform="matrix(1,0,0,-1,0,352.0204)" stroke-width=".9" stroke-linecap="butt" stroke-linejoin="round" fill="none" stroke="#8c96c6" d="M111.54686 303.2746V319.26094"/>
<path transform="matrix(1,0,0,-1,0,352.0204)" stroke-width=".9" stroke-linecap="butt" stroke-linejoin="round" fill="none" stroke="#8c96c6" d="M187.59339 310.74613V325.80046"/>
<path transform="matrix(1,0,0,-1,0,352.0204)" stroke-width=".9" stroke-linecap="butt" stroke-linejoin="round" fill="none" stroke="#8c96c6" d="M302.26194 294.45005V310.90007"/>
</g>
<g clip-path="url(#clip_50)">
<path transform="matrix(1,0,0,-1,0,352.0204)" d="M119.54686 303.2746H103.54686" fill="#8c96c6"/>
<path transform="matrix(1,0,0,-1,0,352.0204)" stroke-width="1" stroke-linecap="butt" stroke-linejoin="round" fill="none" stroke="#8c96c6" d="M119.54686 303.2746H103.54686"/>
<path transform="matrix(1,0,0,-1,0,352.0204)" d="M195.59339 310.74613H179.59339" fill="#8c96c6"/>
<path transform="matrix(1,0,0,-1,0,352.0204)" stroke-width="1" stroke-linecap="butt" stroke-linejoin="round" fill="none" stroke="#8c96c6" d="M195.59339 310.74613H179.59339"/>
<path transform="matrix(1,0,0,-1,0,352.0204)" d="M310.26194 294.45005H294.26194" fill="#8c96c6"/>
<path transform="matrix(1,0,0,-1,0,352.0204)" stroke-width="1" stroke-linecap="butt" stroke-linejoin="round" fill="none" stroke="#8c96c6" d="M310.26194 294.45005H294.26194"/>
</g>
<g clip-path="url(#clip_51)">
<path transform="matrix(1,0,0,-1,0,352.0204)" d="M119.54686 319.26094H103.54686" fill="#8c96c6"/>
<path transform="matrix(1,0,0,-1,0,352.0204)" stroke-width="1" stroke-linecap="butt" stroke-linejoin="round" fill="none" stroke="#8c96c6" d="M119.54686 319.26094H103.54686"/>
<path transform="matrix(1,0,0,-1,0,352.0204)" d="M195.59339 325.80046H179.59339" fill="#8c96c6"/>
<path transform="matrix(1,0,0,-1,0,352.0204)" stroke-width="1" stroke-linecap="butt" stroke-linejoin="round" fill="none" stroke="#8c96c6" d="M195.59339 325.80046H179.59339"/>
<path transform="matrix(1,0,0,-1,0,352.0204)" d="M310.26194 310.90007H294.26194" fill="#8c96c6"/>
<path transform="matrix(1,0,0,-1,0,352.0204)" stroke-width="1" stroke-linecap="butt" stroke-linejoin="round" fill="none" stroke="#8c96c6" d="M310.26194 310.90007H294.26194"/>
</g>
<g clip-path="url(#clip_52)">
<path transform="matrix(1,0,0,-1,0,352.0204)" stroke-width=".9" stroke-linecap="butt" stroke-linejoin="round" fill="none" stroke="#810f7c" d="M111.54686 310.03797V325.21846"/>
<path transform="matrix(1,0,0,-1,0,352.0204)" stroke-width=".9" stroke-linecap="butt" stroke-linejoin="round" fill="none" stroke="#810f7c" d="M187.59339 319.67747V332.32557"/>
<path transform="matrix(1,0,0,-1,0,352.0204)" stroke-width=".9" stroke-linecap="butt" stroke-linejoin="round" fill="none" stroke="#810f7c" d="M302.26194 309.99159V323.39363"/>
</g>
<g clip-path="url(#clip_53)">
<path transform="matrix(1,0,0,-1,0,352.0204)" d="M119.54686 310.03797H103.54686" fill="#810f7c"/>
<path transform="matrix(1,0,0,-1,0,352.0204)" stroke-width="1" stroke-linecap="butt" stroke-linejoin="round" fill="none" stroke="#810f7c" d="M119.54686 310.03797H103.54686"/>
<path transform="matrix(1,0,0,-1,0,352.0204)" d="M195.59339 319.67747H179.59339" fill="#810f7c"/>
<path transform="matrix(1,0,0,-1,0,352.0204)" stroke-width="1" stroke-linecap="butt" stroke-linejoin="round" fill="none" stroke="#810f7c" d="M195.59339 319.67747H179.59339"/>
<path transform="matrix(1,0,0,-1,0,352.0204)" d="M310.26194 309.99159H294.26194" fill="#810f7c"/>
<path transform="matrix(1,0,0,-1,0,352.0204)" stroke-width="1" stroke-linecap="butt" stroke-linejoin="round" fill="none" stroke="#810f7c" d="M310.26194 309.99159H294.26194"/>
</g>
<g clip-path="url(#clip_54)">
<path transform="matrix(1,0,0,-1,0,352.0204)" d="M119.54686 325.21846H103.54686" fill="#810f7c"/>
<path transform="matrix(1,0,0,-1,0,352.0204)" stroke-width="1" stroke-linecap="butt" stroke-linejoin="round" fill="none" stroke="#810f7c" d="M119.54686 325.21846H103.54686"/>
<path transform="matrix(1,0,0,-1,0,352.0204)" d="M195.59339 332.32557H179.59339" fill="#810f7c"/>
<path transform="matrix(1,0,0,-1,0,352.0204)" stroke-width="1" stroke-linecap="butt" stroke-linejoin="round" fill="none" stroke="#810f7c" d="M195.59339 332.32557H179.59339"/>
<path transform="matrix(1,0,0,-1,0,352.0204)" d="M310.26194 323.39363H294.26194" fill="#810f7c"/>
<path transform="matrix(1,0,0,-1,0,352.0204)" stroke-width="1" stroke-linecap="butt" stroke-linejoin="round" fill="none" stroke="#810f7c" d="M310.26194 323.39363H294.26194"/>
</g>
<g clip-path="url(#clip_55)">
<path transform="matrix(1,0,0,-1,0,352.0204)" stroke-width=".9" stroke-linecap="butt" stroke-linejoin="round" fill="none" stroke="#bfd3e6" d="M302.26194 219.14748V225.25821"/>
<path transform="matrix(1,0,0,-1,0,352.0204)" stroke-width=".9" stroke-linecap="butt" stroke-linejoin="round" fill="none" stroke="#bfd3e6" d="M347.76896 197.9977V205.15134"/>
<path transform="matrix(1,0,0,-1,0,352.0204)" stroke-width=".9" stroke-linecap="butt" stroke-linejoin="round" fill="none" stroke="#bfd3e6" d="M387.909 182.57782V191.91429"/>
<path transform="matrix(1,0,0,-1,0,352.0204)" stroke-width=".9" stroke-linecap="butt" stroke-linejoin="round" fill="none" stroke="#bfd3e6" d="M456.29689 144.3975V152.03925"/>
</g>
<g clip-path="url(#clip_56)">
<path transform="matrix(1,0,0,-1,0,352.0204)" d="M310.26194 219.14748H294.26194" fill="#bfd3e6"/>
<path transform="matrix(1,0,0,-1,0,352.0204)" stroke-width="1" stroke-linecap="butt" stroke-linejoin="round" fill="none" stroke="#bfd3e6" d="M310.26194 219.14748H294.26194"/>
<path transform="matrix(1,0,0,-1,0,352.0204)" d="M355.76896 197.9977H339.76896" fill="#bfd3e6"/>
<path transform="matrix(1,0,0,-1,0,352.0204)" stroke-width="1" stroke-linecap="butt" stroke-linejoin="round" fill="none" stroke="#bfd3e6" d="M355.76896 197.9977H339.76896"/>
<path transform="matrix(1,0,0,-1,0,352.0204)" d="M395.909 182.57782H379.909" fill="#bfd3e6"/>
<path transform="matrix(1,0,0,-1,0,352.0204)" stroke-width="1" stroke-linecap="butt" stroke-linejoin="round" fill="none" stroke="#bfd3e6" d="M395.909 182.57782H379.909"/>
<path transform="matrix(1,0,0,-1,0,352.0204)" d="M464.29689 144.3975H448.29689" fill="#bfd3e6"/>
<path transform="matrix(1,0,0,-1,0,352.0204)" stroke-width="1" stroke-linecap="butt" stroke-linejoin="round" fill="none" stroke="#bfd3e6" d="M464.29689 144.3975H448.29689"/>
</g>
<g clip-path="url(#clip_57)">
<path transform="matrix(1,0,0,-1,0,352.0204)" d="M310.26194 225.25821H294.26194" fill="#bfd3e6"/>
<path transform="matrix(1,0,0,-1,0,352.0204)" stroke-width="1" stroke-linecap="butt" stroke-linejoin="round" fill="none" stroke="#bfd3e6" d="M310.26194 225.25821H294.26194"/>
<path transform="matrix(1,0,0,-1,0,352.0204)" d="M355.76896 205.15134H339.76896" fill="#bfd3e6"/>
<path transform="matrix(1,0,0,-1,0,352.0204)" stroke-width="1" stroke-linecap="butt" stroke-linejoin="round" fill="none" stroke="#bfd3e6" d="M355.76896 205.15134H339.76896"/>
<path transform="matrix(1,0,0,-1,0,352.0204)" d="M395.909 191.91429H379.909" fill="#bfd3e6"/>
<path transform="matrix(1,0,0,-1,0,352.0204)" stroke-width="1" stroke-linecap="butt" stroke-linejoin="round" fill="none" stroke="#bfd3e6" d="M395.909 191.91429H379.909"/>
<path transform="matrix(1,0,0,-1,0,352.0204)" d="M464.29689 152.03925H448.29689" fill="#bfd3e6"/>
<path transform="matrix(1,0,0,-1,0,352.0204)" stroke-width="1" stroke-linecap="butt" stroke-linejoin="round" fill="none" stroke="#bfd3e6" d="M464.29689 152.03925H448.29689"/>
</g>
<g clip-path="url(#clip_58)">
<path transform="matrix(1,0,0,-1,0,352.0204)" stroke-width=".9" stroke-linecap="butt" stroke-linejoin="round" fill="none" stroke="#8c96c6" d="M302.26194 288.5973V312.75575"/>
<path transform="matrix(1,0,0,-1,0,352.0204)" stroke-width=".9" stroke-linecap="butt" stroke-linejoin="round" fill="none" stroke="#8c96c6" d="M347.76896 298.71446V314.69886"/>
<path transform="matrix(1,0,0,-1,0,352.0204)" stroke-width=".9" stroke-linecap="butt" stroke-linejoin="round" fill="none" stroke="#8c96c6" d="M387.909 293.87776V315.30238"/>
<path transform="matrix(1,0,0,-1,0,352.0204)" stroke-width=".9" stroke-linecap="butt" stroke-linejoin="round" fill="none" stroke="#8c96c6" d="M456.29689 276.90556V298.71119"/>
</g>
<g clip-path="url(#clip_59)">
<path transform="matrix(1,0,0,-1,0,352.0204)" d="M310.26194 288.5973H294.26194" fill="#8c96c6"/>
<path transform="matrix(1,0,0,-1,0,352.0204)" stroke-width="1" stroke-linecap="butt" stroke-linejoin="round" fill="none" stroke="#8c96c6" d="M310.26194 288.5973H294.26194"/>
<path transform="matrix(1,0,0,-1,0,352.0204)" d="M355.76896 298.71446H339.76896" fill="#8c96c6"/>
<path transform="matrix(1,0,0,-1,0,352.0204)" stroke-width="1" stroke-linecap="butt" stroke-linejoin="round" fill="none" stroke="#8c96c6" d="M355.76896 298.71446H339.76896"/>
<path transform="matrix(1,0,0,-1,0,352.0204)" d="M395.909 293.87776H379.909" fill="#8c96c6"/>
<path transform="matrix(1,0,0,-1,0,352.0204)" stroke-width="1" stroke-linecap="butt" stroke-linejoin="round" fill="none" stroke="#8c96c6" d="M395.909 293.87776H379.909"/>
<path transform="matrix(1,0,0,-1,0,352.0204)" d="M464.29689 276.90556H448.29689" fill="#8c96c6"/>
<path transform="matrix(1,0,0,-1,0,352.0204)" stroke-width="1" stroke-linecap="butt" stroke-linejoin="round" fill="none" stroke="#8c96c6" d="M464.29689 276.90556H448.29689"/>
</g>
<g clip-path="url(#clip_60)">
<path transform="matrix(1,0,0,-1,0,352.0204)" d="M310.26194 312.75575H294.26194" fill="#8c96c6"/>
<path transform="matrix(1,0,0,-1,0,352.0204)" stroke-width="1" stroke-linecap="butt" stroke-linejoin="round" fill="none" stroke="#8c96c6" d="M310.26194 312.75575H294.26194"/>
<path transform="matrix(1,0,0,-1,0,352.0204)" d="M355.76896 314.69886H339.76896" fill="#8c96c6"/>
<path transform="matrix(1,0,0,-1,0,352.0204)" stroke-width="1" stroke-linecap="butt" stroke-linejoin="round" fill="none" stroke="#8c96c6" d="M355.76896 314.69886H339.76896"/>
<path transform="matrix(1,0,0,-1,0,352.0204)" d="M395.909 315.30238H379.909" fill="#8c96c6"/>
<path transform="matrix(1,0,0,-1,0,352.0204)" stroke-width="1" stroke-linecap="butt" stroke-linejoin="round" fill="none" stroke="#8c96c6" d="M395.909 315.30238H379.909"/>
<path transform="matrix(1,0,0,-1,0,352.0204)" d="M464.29689 298.71119H448.29689" fill="#8c96c6"/>
<path transform="matrix(1,0,0,-1,0,352.0204)" stroke-width="1" stroke-linecap="butt" stroke-linejoin="round" fill="none" stroke="#8c96c6" d="M464.29689 298.71119H448.29689"/>
</g>
<g clip-path="url(#clip_61)">
<path transform="matrix(1,0,0,-1,0,352.0204)" stroke-width=".9" stroke-linecap="butt" stroke-linejoin="round" fill="none" stroke="#810f7c" d="M302.26194 299.49565V324.23857"/>
<path transform="matrix(1,0,0,-1,0,352.0204)" stroke-width=".9" stroke-linecap="butt" stroke-linejoin="round" fill="none" stroke="#810f7c" d="M347.76896 312.3521V328.29359"/>
<path transform="matrix(1,0,0,-1,0,352.0204)" stroke-width=".9" stroke-linecap="butt" stroke-linejoin="round" fill="none" stroke="#810f7c" d="M387.909 310.9475V330.142"/>
<path transform="matrix(1,0,0,-1,0,352.0204)" stroke-width=".9" stroke-linecap="butt" stroke-linejoin="round" fill="none" stroke="#810f7c" d="M456.29689 303.0005V321.7291"/>
</g>
<g clip-path="url(#clip_62)">
<path transform="matrix(1,0,0,-1,0,352.0204)" d="M310.26194 299.49565H294.26194" fill="#810f7c"/>
<path transform="matrix(1,0,0,-1,0,352.0204)" stroke-width="1" stroke-linecap="butt" stroke-linejoin="round" fill="none" stroke="#810f7c" d="M310.26194 299.49565H294.26194"/>
<path transform="matrix(1,0,0,-1,0,352.0204)" d="M355.76896 312.3521H339.76896" fill="#810f7c"/>
<path transform="matrix(1,0,0,-1,0,352.0204)" stroke-width="1" stroke-linecap="butt" stroke-linejoin="round" fill="none" stroke="#810f7c" d="M355.76896 312.3521H339.76896"/>
<path transform="matrix(1,0,0,-1,0,352.0204)" d="M395.909 310.9475H379.909" fill="#810f7c"/>
<path transform="matrix(1,0,0,-1,0,352.0204)" stroke-width="1" stroke-linecap="butt" stroke-linejoin="round" fill="none" stroke="#810f7c" d="M395.909 310.9475H379.909"/>
<path transform="matrix(1,0,0,-1,0,352.0204)" d="M464.29689 303.0005H448.29689" fill="#810f7c"/>
<path transform="matrix(1,0,0,-1,0,352.0204)" stroke-width="1" stroke-linecap="butt" stroke-linejoin="round" fill="none" stroke="#810f7c" d="M464.29689 303.0005H448.29689"/>
</g>
<g clip-path="url(#clip_63)">
<path transform="matrix(1,0,0,-1,0,352.0204)" d="M310.26194 324.23857H294.26194" fill="#810f7c"/>
<path transform="matrix(1,0,0,-1,0,352.0204)" stroke-width="1" stroke-linecap="butt" stroke-linejoin="round" fill="none" stroke="#810f7c" d="M310.26194 324.23857H294.26194"/>
<path transform="matrix(1,0,0,-1,0,352.0204)" d="M355.76896 328.29359H339.76896" fill="#810f7c"/>
<path transform="matrix(1,0,0,-1,0,352.0204)" stroke-width="1" stroke-linecap="butt" stroke-linejoin="round" fill="none" stroke="#810f7c" d="M355.76896 328.29359H339.76896"/>
<path transform="matrix(1,0,0,-1,0,352.0204)" d="M395.909 330.142H379.909" fill="#810f7c"/>
<path transform="matrix(1,0,0,-1,0,352.0204)" stroke-width="1" stroke-linecap="butt" stroke-linejoin="round" fill="none" stroke="#810f7c" d="M395.909 330.142H379.909"/>
<path transform="matrix(1,0,0,-1,0,352.0204)" d="M464.29689 321.7291H448.29689" fill="#810f7c"/>
<path transform="matrix(1,0,0,-1,0,352.0204)" stroke-width="1" stroke-linecap="butt" stroke-linejoin="round" fill="none" stroke="#810f7c" d="M464.29689 321.7291H448.29689"/>
</g>
<g clip-path="url(#clip_64)">
<path transform="matrix(1,0,0,-1,0,352.0204)" stroke-width=".9" stroke-linecap="butt" stroke-linejoin="round" fill="none" stroke="#bfd3e6" d="M387.909 180.11608V185.89228"/>
<path transform="matrix(1,0,0,-1,0,352.0204)" stroke-width=".9" stroke-linecap="butt" stroke-linejoin="round" fill="none" stroke="#bfd3e6" d="M456.29689 140.86237V147.81777"/>
<path transform="matrix(1,0,0,-1,0,352.0204)" stroke-width=".9" stroke-linecap="butt" stroke-linejoin="round" fill="none" stroke="#bfd3e6" d="M485.95005 122.93622V132.61128"/>
<path transform="matrix(1,0,0,-1,0,352.0204)" stroke-width=".9" stroke-linecap="butt" stroke-linejoin="round" fill="none" stroke="#bfd3e6" d="M513.2283 100.120998V106.98287"/>
<path transform="matrix(1,0,0,-1,0,352.0204)" stroke-width=".9" stroke-linecap="butt" stroke-linejoin="round" fill="none" stroke="#bfd3e6" d="M538.484 82.429279V89.106449"/>
</g>
<g clip-path="url(#clip_65)">
<path transform="matrix(1,0,0,-1,0,352.0204)" d="M395.909 180.11608H379.909" fill="#bfd3e6"/>
<path transform="matrix(1,0,0,-1,0,352.0204)" stroke-width="1" stroke-linecap="butt" stroke-linejoin="round" fill="none" stroke="#bfd3e6" d="M395.909 180.11608H379.909"/>
<path transform="matrix(1,0,0,-1,0,352.0204)" d="M464.29689 140.86237H448.29689" fill="#bfd3e6"/>
<path transform="matrix(1,0,0,-1,0,352.0204)" stroke-width="1" stroke-linecap="butt" stroke-linejoin="round" fill="none" stroke="#bfd3e6" d="M464.29689 140.86237H448.29689"/>
<path transform="matrix(1,0,0,-1,0,352.0204)" d="M493.95005 122.93622H477.95005" fill="#bfd3e6"/>
<path transform="matrix(1,0,0,-1,0,352.0204)" stroke-width="1" stroke-linecap="butt" stroke-linejoin="round" fill="none" stroke="#bfd3e6" d="M493.95005 122.93622H477.95005"/>
<path transform="matrix(1,0,0,-1,0,352.0204)" d="M521.2283 100.120998H505.2283" fill="#bfd3e6"/>
<path transform="matrix(1,0,0,-1,0,352.0204)" stroke-width="1" stroke-linecap="butt" stroke-linejoin="round" fill="none" stroke="#bfd3e6" d="M521.2283 100.120998H505.2283"/>
<path transform="matrix(1,0,0,-1,0,352.0204)" d="M546.484 82.429279H530.484" fill="#bfd3e6"/>
<path transform="matrix(1,0,0,-1,0,352.0204)" stroke-width="1" stroke-linecap="butt" stroke-linejoin="round" fill="none" stroke="#bfd3e6" d="M546.484 82.429279H530.484"/>
</g>
<g clip-path="url(#clip_66)">
<path transform="matrix(1,0,0,-1,0,352.0204)" d="M395.909 185.89228H379.909" fill="#bfd3e6"/>
<path transform="matrix(1,0,0,-1,0,352.0204)" stroke-width="1" stroke-linecap="butt" stroke-linejoin="round" fill="none" stroke="#bfd3e6" d="M395.909 185.89228H379.909"/>
<path transform="matrix(1,0,0,-1,0,352.0204)" d="M464.29689 147.81777H448.29689" fill="#bfd3e6"/>
<path transform="matrix(1,0,0,-1,0,352.0204)" stroke-width="1" stroke-linecap="butt" stroke-linejoin="round" fill="none" stroke="#bfd3e6" d="M464.29689 147.81777H448.29689"/>
<path transform="matrix(1,0,0,-1,0,352.0204)" d="M493.95005 132.61128H477.95005" fill="#bfd3e6"/>
<path transform="matrix(1,0,0,-1,0,352.0204)" stroke-width="1" stroke-linecap="butt" stroke-linejoin="round" fill="none" stroke="#bfd3e6" d="M493.95005 132.61128H477.95005"/>
<path transform="matrix(1,0,0,-1,0,352.0204)" d="M521.2283 106.98287H505.2283" fill="#bfd3e6"/>
<path transform="matrix(1,0,0,-1,0,352.0204)" stroke-width="1" stroke-linecap="butt" stroke-linejoin="round" fill="none" stroke="#bfd3e6" d="M521.2283 106.98287H505.2283"/>
<path transform="matrix(1,0,0,-1,0,352.0204)" d="M546.484 89.106449H530.484" fill="#bfd3e6"/>
<path transform="matrix(1,0,0,-1,0,352.0204)" stroke-width="1" stroke-linecap="butt" stroke-linejoin="round" fill="none" stroke="#bfd3e6" d="M546.484 89.106449H530.484"/>
</g>
<g clip-path="url(#clip_67)">
<path transform="matrix(1,0,0,-1,0,352.0204)" stroke-width=".9" stroke-linecap="butt" stroke-linejoin="round" fill="none" stroke="#8c96c6" d="M387.909 292.72758V303.35334"/>
<path transform="matrix(1,0,0,-1,0,352.0204)" stroke-width=".9" stroke-linecap="butt" stroke-linejoin="round" fill="none" stroke="#8c96c6" d="M456.29689 279.82923V298.6359"/>
<path transform="matrix(1,0,0,-1,0,352.0204)" stroke-width=".9" stroke-linecap="butt" stroke-linejoin="round" fill="none" stroke="#8c96c6" d="M485.95005 261.5231V291.6281"/>
<path transform="matrix(1,0,0,-1,0,352.0204)" stroke-width=".9" stroke-linecap="butt" stroke-linejoin="round" fill="none" stroke="#8c96c6" d="M513.2283 255.82735V276.2804"/>
<path transform="matrix(1,0,0,-1,0,352.0204)" stroke-width=".9" stroke-linecap="butt" stroke-linejoin="round" fill="none" stroke="#8c96c6" d="M538.484 235.36846V258.06333"/>
</g>
<g clip-path="url(#clip_68)">
<path transform="matrix(1,0,0,-1,0,352.0204)" d="M395.909 292.72758H379.909" fill="#8c96c6"/>
<path transform="matrix(1,0,0,-1,0,352.0204)" stroke-width="1" stroke-linecap="butt" stroke-linejoin="round" fill="none" stroke="#8c96c6" d="M395.909 292.72758H379.909"/>
<path transform="matrix(1,0,0,-1,0,352.0204)" d="M464.29689 279.82923H448.29689" fill="#8c96c6"/>
<path transform="matrix(1,0,0,-1,0,352.0204)" stroke-width="1" stroke-linecap="butt" stroke-linejoin="round" fill="none" stroke="#8c96c6" d="M464.29689 279.82923H448.29689"/>
<path transform="matrix(1,0,0,-1,0,352.0204)" d="M493.95005 261.5231H477.95005" fill="#8c96c6"/>
<path transform="matrix(1,0,0,-1,0,352.0204)" stroke-width="1" stroke-linecap="butt" stroke-linejoin="round" fill="none" stroke="#8c96c6" d="M493.95005 261.5231H477.95005"/>
<path transform="matrix(1,0,0,-1,0,352.0204)" d="M521.2283 255.82735H505.2283" fill="#8c96c6"/>
<path transform="matrix(1,0,0,-1,0,352.0204)" stroke-width="1" stroke-linecap="butt" stroke-linejoin="round" fill="none" stroke="#8c96c6" d="M521.2283 255.82735H505.2283"/>
<path transform="matrix(1,0,0,-1,0,352.0204)" d="M546.484 235.36846H530.484" fill="#8c96c6"/>
<path transform="matrix(1,0,0,-1,0,352.0204)" stroke-width="1" stroke-linecap="butt" stroke-linejoin="round" fill="none" stroke="#8c96c6" d="M546.484 235.36846H530.484"/>
</g>
<g clip-path="url(#clip_69)">
<path transform="matrix(1,0,0,-1,0,352.0204)" d="M395.909 303.35334H379.909" fill="#8c96c6"/>
<path transform="matrix(1,0,0,-1,0,352.0204)" stroke-width="1" stroke-linecap="butt" stroke-linejoin="round" fill="none" stroke="#8c96c6" d="M395.909 303.35334H379.909"/>
<path transform="matrix(1,0,0,-1,0,352.0204)" d="M464.29689 298.6359H448.29689" fill="#8c96c6"/>
<path transform="matrix(1,0,0,-1,0,352.0204)" stroke-width="1" stroke-linecap="butt" stroke-linejoin="round" fill="none" stroke="#8c96c6" d="M464.29689 298.6359H448.29689"/>
<path transform="matrix(1,0,0,-1,0,352.0204)" d="M493.95005 291.6281H477.95005" fill="#8c96c6"/>
<path transform="matrix(1,0,0,-1,0,352.0204)" stroke-width="1" stroke-linecap="butt" stroke-linejoin="round" fill="none" stroke="#8c96c6" d="M493.95005 291.6281H477.95005"/>
<path transform="matrix(1,0,0,-1,0,352.0204)" d="M521.2283 276.2804H505.2283" fill="#8c96c6"/>
<path transform="matrix(1,0,0,-1,0,352.0204)" stroke-width="1" stroke-linecap="butt" stroke-linejoin="round" fill="none" stroke="#8c96c6" d="M521.2283 276.2804H505.2283"/>
<path transform="matrix(1,0,0,-1,0,352.0204)" d="M546.484 258.06333H530.484" fill="#8c96c6"/>
<path transform="matrix(1,0,0,-1,0,352.0204)" stroke-width="1" stroke-linecap="butt" stroke-linejoin="round" fill="none" stroke="#8c96c6" d="M546.484 258.06333H530.484"/>
</g>
<g clip-path="url(#clip_70)">
<path transform="matrix(1,0,0,-1,0,352.0204)" stroke-width=".9" stroke-linecap="butt" stroke-linejoin="round" fill="none" stroke="#810f7c" d="M513.2283 290.83906V299.17237"/>
</g>
<g clip-path="url(#clip_71)">
<path transform="matrix(1,0,0,-1,0,352.0204)" d="M521.2283 290.83906H505.2283" fill="#810f7c"/>
<path transform="matrix(1,0,0,-1,0,352.0204)" stroke-width="1" stroke-linecap="butt" stroke-linejoin="round" fill="none" stroke="#810f7c" d="M521.2283 290.83906H505.2283"/>
</g>
<g clip-path="url(#clip_72)">
<path transform="matrix(1,0,0,-1,0,352.0204)" d="M521.2283 299.17237H505.2283" fill="#810f7c"/>
<path transform="matrix(1,0,0,-1,0,352.0204)" stroke-width="1" stroke-linecap="butt" stroke-linejoin="round" fill="none" stroke="#810f7c" d="M521.2283 299.17237H505.2283"/>
</g>
<g clip-path="url(#clip_73)">
<path transform="matrix(1,0,0,-1,0,352.0204)" stroke-width="2" stroke-linecap="square" stroke-linejoin="round" fill="none" stroke="#ff7f0e" d="M111.54686 276.64045 130.2881 273.42576 148.05222 270.16175 164.93607 266.84254 181.02278 263.46144 196.38426 260.01063 211.08309 256.48103 225.17406 252.86186 237.8199 249.39205 250.01323 245.8209 261.78535 242.13376 272.364 238.5907 282.6242 234.91519 291.82859 231.38684 300.79087 227.7077 302.26194 227.07819"/>
</g>
<g clip-path="url(#clip_74)">
<path transform="matrix(1,0,0,-1,0,352.0204)" stroke-width="2" stroke-linecap="square" stroke-linejoin="round" fill="none" stroke="#ff7f0e" d="M302.26194 221.93898 317.33647 215.93079 331.77238 209.92252 345.62153 203.91416 358.9298 197.9057 371.73786 191.89713 385.4263 185.22077 398.5861 178.54418 411.25657 171.86733 423.4728 165.19016 436.42347 157.84482 448.89994 150.49889 460.93574 143.15222 472.5609 135.80466 484.80644 127.78784 496.62715 119.76934 508.05155 111.748699 519.10537 103.725337 530.6891 95.02947 538.484 89.006298"/>
</g>
<g clip-path="url(#clip_75)">
<g clip-path="url(#clip_76)">
<path transform="matrix(1,0,0,-1,111.54686,75.379947)" d="M0-4.5C1.193414-4.5 2.338109-4.025852 3.181981-3.181981 4.025852-2.338109 4.5-1.193414 4.5 0 4.5 1.193414 4.025852 2.338109 3.181981 3.181981 2.338109 4.025852 1.193414 4.5 0 4.5-1.193414 4.5-2.338109 4.025852-3.181981 3.181981-4.025852 2.338109-4.5 1.193414-4.5 0-4.5-1.193414-4.025852-2.338109-3.181981-3.181981-2.338109-4.025852-1.193414-4.5 0-4.5Z" fill="#bfd3e6"/>
<path transform="matrix(1,0,0,-1,111.54686,75.379947)" stroke-width="1" stroke-linecap="butt" stroke-linejoin="round" fill="none" stroke="#808080" d="M0-4.5C1.193414-4.5 2.338109-4.025852 3.181981-3.181981 4.025852-2.338109 4.5-1.193414 4.5 0 4.5 1.193414 4.025852 2.338109 3.181981 3.181981 2.338109 4.025852 1.193414 4.5 0 4.5-1.193414 4.5-2.338109 4.025852-3.181981 3.181981-4.025852 2.338109-4.5 1.193414-4.5 0-4.5-1.193414-4.025852-2.338109-3.181981-3.181981-2.338109-4.025852-1.193414-4.5 0-4.5Z"/>
</g>
<g clip-path="url(#clip_77)">
<path transform="matrix(1,0,0,-1,187.59339,90.00695)" d="M0-4.5C1.193414-4.5 2.338109-4.025852 3.181981-3.181981 4.025852-2.338109 4.5-1.193414 4.5 0 4.5 1.193414 4.025852 2.338109 3.181981 3.181981 2.338109 4.025852 1.193414 4.5 0 4.5-1.193414 4.5-2.338109 4.025852-3.181981 3.181981-4.025852 2.338109-4.5 1.193414-4.5 0-4.5-1.193414-4.025852-2.338109-3.181981-3.181981-2.338109-4.025852-1.193414-4.5 0-4.5Z" fill="#bfd3e6"/>
<path transform="matrix(1,0,0,-1,187.59339,90.00695)" stroke-width="1" stroke-linecap="butt" stroke-linejoin="round" fill="none" stroke="#808080" d="M0-4.5C1.193414-4.5 2.338109-4.025852 3.181981-3.181981 4.025852-2.338109 4.5-1.193414 4.5 0 4.5 1.193414 4.025852 2.338109 3.181981 3.181981 2.338109 4.025852 1.193414 4.5 0 4.5-1.193414 4.5-2.338109 4.025852-3.181981 3.181981-4.025852 2.338109-4.5 1.193414-4.5 0-4.5-1.193414-4.025852-2.338109-3.181981-3.181981-2.338109-4.025852-1.193414-4.5 0-4.5Z"/>
</g>
<g clip-path="url(#clip_78)">
<path transform="matrix(1,0,0,-1,302.26194,124.942188)" d="M0-4.5C1.193414-4.5 2.338109-4.025852 3.181981-3.181981 4.025852-2.338109 4.5-1.193414 4.5 0 4.5 1.193414 4.025852 2.338109 3.181981 3.181981 2.338109 4.025852 1.193414 4.5 0 4.5-1.193414 4.5-2.338109 4.025852-3.181981 3.181981-4.025852 2.338109-4.5 1.193414-4.5 0-4.5-1.193414-4.025852-2.338109-3.181981-3.181981-2.338109-4.025852-1.193414-4.5 0-4.5Z" fill="#bfd3e6"/>
<path transform="matrix(1,0,0,-1,302.26194,124.942188)" stroke-width="1" stroke-linecap="butt" stroke-linejoin="round" fill="none" stroke="#808080" d="M0-4.5C1.193414-4.5 2.338109-4.025852 3.181981-3.181981 4.025852-2.338109 4.5-1.193414 4.5 0 4.5 1.193414 4.025852 2.338109 3.181981 3.181981 2.338109 4.025852 1.193414 4.5 0 4.5-1.193414 4.5-2.338109 4.025852-3.181981 3.181981-4.025852 2.338109-4.5 1.193414-4.5 0-4.5-1.193414-4.025852-2.338109-3.181981-3.181981-2.338109-4.025852-1.193414-4.5 0-4.5Z"/>
</g>
</g>
<g clip-path="url(#clip_79)">
<g clip-path="url(#clip_80)">
<path transform="matrix(1,0,0,-1,111.54686,38.902864)" d="M0-4.5C1.193414-4.5 2.338109-4.025852 3.181981-3.181981 4.025852-2.338109 4.5-1.193414 4.5 0 4.5 1.193414 4.025852 2.338109 3.181981 3.181981 2.338109 4.025852 1.193414 4.5 0 4.5-1.193414 4.5-2.338109 4.025852-3.181981 3.181981-4.025852 2.338109-4.5 1.193414-4.5 0-4.5-1.193414-4.025852-2.338109-3.181981-3.181981-2.338109-4.025852-1.193414-4.5 0-4.5Z" fill="#8c96c6"/>
<path transform="matrix(1,0,0,-1,111.54686,38.902864)" stroke-width="1" stroke-linecap="butt" stroke-linejoin="round" fill="none" stroke="#808080" d="M0-4.5C1.193414-4.5 2.338109-4.025852 3.181981-3.181981 4.025852-2.338109 4.5-1.193414 4.5 0 4.5 1.193414 4.025852 2.338109 3.181981 3.181981 2.338109 4.025852 1.193414 4.5 0 4.5-1.193414 4.5-2.338109 4.025852-3.181981 3.181981-4.025852 2.338109-4.5 1.193414-4.5 0-4.5-1.193414-4.025852-2.338109-3.181981-3.181981-2.338109-4.025852-1.193414-4.5 0-4.5Z"/>
</g>
<g clip-path="url(#clip_81)">
<path transform="matrix(1,0,0,-1,187.59339,32.53714)" d="M0-4.5C1.193414-4.5 2.338109-4.025852 3.181981-3.181981 4.025852-2.338109 4.5-1.193414 4.5 0 4.5 1.193414 4.025852 2.338109 3.181981 3.181981 2.338109 4.025852 1.193414 4.5 0 4.5-1.193414 4.5-2.338109 4.025852-3.181981 3.181981-4.025852 2.338109-4.5 1.193414-4.5 0-4.5-1.193414-4.025852-2.338109-3.181981-3.181981-2.338109-4.025852-1.193414-4.5 0-4.5Z" fill="#8c96c6"/>
<path transform="matrix(1,0,0,-1,187.59339,32.53714)" stroke-width="1" stroke-linecap="butt" stroke-linejoin="round" fill="none" stroke="#808080" d="M0-4.5C1.193414-4.5 2.338109-4.025852 3.181981-3.181981 4.025852-2.338109 4.5-1.193414 4.5 0 4.5 1.193414 4.025852 2.338109 3.181981 3.181981 2.338109 4.025852 1.193414 4.5 0 4.5-1.193414 4.5-2.338109 4.025852-3.181981 3.181981-4.025852 2.338109-4.5 1.193414-4.5 0-4.5-1.193414-4.025852-2.338109-3.181981-3.181981-2.338109-4.025852-1.193414-4.5 0-4.5Z"/>
</g>
<g clip-path="url(#clip_82)">
<path transform="matrix(1,0,0,-1,302.26194,47.261747)" d="M0-4.5C1.193414-4.5 2.338109-4.025852 3.181981-3.181981 4.025852-2.338109 4.5-1.193414 4.5 0 4.5 1.193414 4.025852 2.338109 3.181981 3.181981 2.338109 4.025852 1.193414 4.5 0 4.5-1.193414 4.5-2.338109 4.025852-3.181981 3.181981-4.025852 2.338109-4.5 1.193414-4.5 0-4.5-1.193414-4.025852-2.338109-3.181981-3.181981-2.338109-4.025852-1.193414-4.5 0-4.5Z" fill="#8c96c6"/>
<path transform="matrix(1,0,0,-1,302.26194,47.261747)" stroke-width="1" stroke-linecap="butt" stroke-linejoin="round" fill="none" stroke="#808080" d="M0-4.5C1.193414-4.5 2.338109-4.025852 3.181981-3.181981 4.025852-2.338109 4.5-1.193414 4.5 0 4.5 1.193414 4.025852 2.338109 3.181981 3.181981 2.338109 4.025852 1.193414 4.5 0 4.5-1.193414 4.5-2.338109 4.025852-3.181981 3.181981-4.025852 2.338109-4.5 1.193414-4.5 0-4.5-1.193414-4.025852-2.338109-3.181981-3.181981-2.338109-4.025852-1.193414-4.5 0-4.5Z"/>
</g>
</g>
<g clip-path="url(#clip_83)">
<g clip-path="url(#clip_84)">
<path transform="matrix(1,0,0,-1,111.54686,33.01996)" d="M0-4.5C1.193414-4.5 2.338109-4.025852 3.181981-3.181981 4.025852-2.338109 4.5-1.193414 4.5 0 4.5 1.193414 4.025852 2.338109 3.181981 3.181981 2.338109 4.025852 1.193414 4.5 0 4.5-1.193414 4.5-2.338109 4.025852-3.181981 3.181981-4.025852 2.338109-4.5 1.193414-4.5 0-4.5-1.193414-4.025852-2.338109-3.181981-3.181981-2.338109-4.025852-1.193414-4.5 0-4.5Z" fill="#810f7c"/>
<path transform="matrix(1,0,0,-1,111.54686,33.01996)" stroke-width="1" stroke-linecap="butt" stroke-linejoin="round" fill="none" stroke="#808080" d="M0-4.5C1.193414-4.5 2.338109-4.025852 3.181981-3.181981 4.025852-2.338109 4.5-1.193414 4.5 0 4.5 1.193414 4.025852 2.338109 3.181981 3.181981 2.338109 4.025852 1.193414 4.5 0 4.5-1.193414 4.5-2.338109 4.025852-3.181981 3.181981-4.025852 2.338109-4.5 1.193414-4.5 0-4.5-1.193414-4.025852-2.338109-3.181981-3.181981-2.338109-4.025852-1.193414-4.5 0-4.5Z"/>
</g>
<g clip-path="url(#clip_85)">
<path transform="matrix(1,0,0,-1,187.59339,23.733786)" d="M0-4.5C1.193414-4.5 2.338109-4.025852 3.181981-3.181981 4.025852-2.338109 4.5-1.193414 4.5 0 4.5 1.193414 4.025852 2.338109 3.181981 3.181981 2.338109 4.025852 1.193414 4.5 0 4.5-1.193414 4.5-2.338109 4.025852-3.181981 3.181981-4.025852 2.338109-4.5 1.193414-4.5 0-4.5-1.193414-4.025852-2.338109-3.181981-3.181981-2.338109-4.025852-1.193414-4.5 0-4.5Z" fill="#810f7c"/>
<path transform="matrix(1,0,0,-1,187.59339,23.733786)" stroke-width="1" stroke-linecap="butt" stroke-linejoin="round" fill="none" stroke="#808080" d="M0-4.5C1.193414-4.5 2.338109-4.025852 3.181981-3.181981 4.025852-2.338109 4.5-1.193414 4.5 0 4.5 1.193414 4.025852 2.338109 3.181981 3.181981 2.338109 4.025852 1.193414 4.5 0 4.5-1.193414 4.5-2.338109 4.025852-3.181981 3.181981-4.025852 2.338109-4.5 1.193414-4.5 0-4.5-1.193414-4.025852-2.338109-3.181981-3.181981-2.338109-4.025852-1.193414-4.5 0-4.5Z"/>
</g>
<g clip-path="url(#clip_86)">
<path transform="matrix(1,0,0,-1,302.26194,36.397359)" d="M0-4.5C1.193414-4.5 2.338109-4.025852 3.181981-3.181981 4.025852-2.338109 4.5-1.193414 4.5 0 4.5 1.193414 4.025852 2.338109 3.181981 3.181981 2.338109 4.025852 1.193414 4.5 0 4.5-1.193414 4.5-2.338109 4.025852-3.181981 3.181981-4.025852 2.338109-4.5 1.193414-4.5 0-4.5-1.193414-4.025852-2.338109-3.181981-3.181981-2.338109-4.025852-1.193414-4.5 0-4.5Z" fill="#810f7c"/>
<path transform="matrix(1,0,0,-1,302.26194,36.397359)" stroke-width="1" stroke-linecap="butt" stroke-linejoin="round" fill="none" stroke="#808080" d="M0-4.5C1.193414-4.5 2.338109-4.025852 3.181981-3.181981 4.025852-2.338109 4.5-1.193414 4.5 0 4.5 1.193414 4.025852 2.338109 3.181981 3.181981 2.338109 4.025852 1.193414 4.5 0 4.5-1.193414 4.5-2.338109 4.025852-3.181981 3.181981-4.025852 2.338109-4.5 1.193414-4.5 0-4.5-1.193414-4.025852-2.338109-3.181981-3.181981-2.338109-4.025852-1.193414-4.5 0-4.5Z"/>
</g>
</g>
<g clip-path="url(#clip_87)">
<g clip-path="url(#clip_88)">
<path transform="matrix(1,0,0,-1,302.26194,129.78871)" d="M-4.5-4.5H4.5V4.5H-4.5Z" fill="#bfd3e6"/>
<path transform="matrix(1,0,0,-1,302.26194,129.78871)" stroke-width="1" stroke-linecap="butt" stroke-miterlimit="10" stroke-linejoin="miter" fill="none" stroke="#808080" d="M-4.5-4.5H4.5V4.5H-4.5Z"/>
</g>
<g clip-path="url(#clip_89)">
<path transform="matrix(1,0,0,-1,347.76896,150.9725)" d="M-4.5-4.5H4.5V4.5H-4.5Z" fill="#bfd3e6"/>
<path transform="matrix(1,0,0,-1,347.76896,150.9725)" stroke-width="1" stroke-linecap="butt" stroke-miterlimit="10" stroke-linejoin="miter" fill="none" stroke="#808080" d="M-4.5-4.5H4.5V4.5H-4.5Z"/>
</g>
<g clip-path="url(#clip_90)">
<path transform="matrix(1,0,0,-1,387.909,164.63765)" d="M-4.5-4.5H4.5V4.5H-4.5Z" fill="#bfd3e6"/>
<path transform="matrix(1,0,0,-1,387.909,164.63765)" stroke-width="1" stroke-linecap="butt" stroke-miterlimit="10" stroke-linejoin="miter" fill="none" stroke="#808080" d="M-4.5-4.5H4.5V4.5H-4.5Z"/>
</g>
<g clip-path="url(#clip_91)">
<path transform="matrix(1,0,0,-1,456.29689,203.49268)" d="M-4.5-4.5H4.5V4.5H-4.5Z" fill="#bfd3e6"/>
<path transform="matrix(1,0,0,-1,456.29689,203.49268)" stroke-width="1" stroke-linecap="butt" stroke-miterlimit="10" stroke-linejoin="miter" fill="none" stroke="#808080" d="M-4.5-4.5H4.5V4.5H-4.5Z"/>
</g>
</g>
<g clip-path="url(#clip_92)">
<g clip-path="url(#clip_93)">
<path transform="matrix(1,0,0,-1,302.26194,50.40323)" d="M-4.5-4.5H4.5V4.5H-4.5Z" fill="#8c96c6"/>
<path transform="matrix(1,0,0,-1,302.26194,50.40323)" stroke-width="1" stroke-linecap="butt" stroke-miterlimit="10" stroke-linejoin="miter" fill="none" stroke="#808080" d="M-4.5-4.5H4.5V4.5H-4.5Z"/>
</g>
<g clip-path="url(#clip_94)">
<path transform="matrix(1,0,0,-1,347.76896,45.033937)" d="M-4.5-4.5H4.5V4.5H-4.5Z" fill="#8c96c6"/>
<path transform="matrix(1,0,0,-1,347.76896,45.033937)" stroke-width="1" stroke-linecap="butt" stroke-miterlimit="10" stroke-linejoin="miter" fill="none" stroke="#808080" d="M-4.5-4.5H4.5V4.5H-4.5Z"/>
</g>
<g clip-path="url(#clip_95)">
<path transform="matrix(1,0,0,-1,387.909,49.770685)" d="M-4.5-4.5H4.5V4.5H-4.5Z" fill="#8c96c6"/>
<path transform="matrix(1,0,0,-1,387.909,49.770685)" stroke-width="1" stroke-linecap="butt" stroke-miterlimit="10" stroke-linejoin="miter" fill="none" stroke="#808080" d="M-4.5-4.5H4.5V4.5H-4.5Z"/>
</g>
<g clip-path="url(#clip_96)">
<path transform="matrix(1,0,0,-1,456.29689,63.684167)" d="M-4.5-4.5H4.5V4.5H-4.5Z" fill="#8c96c6"/>
<path transform="matrix(1,0,0,-1,456.29689,63.684167)" stroke-width="1" stroke-linecap="butt" stroke-miterlimit="10" stroke-linejoin="miter" fill="none" stroke="#808080" d="M-4.5-4.5H4.5V4.5H-4.5Z"/>
</g>
</g>
<g clip-path="url(#clip_97)">
<g clip-path="url(#clip_98)">
<path transform="matrix(1,0,0,-1,302.26194,39.386537)" d="M-4.5-4.5H4.5V4.5H-4.5Z" fill="#810f7c"/>
<path transform="matrix(1,0,0,-1,302.26194,39.386537)" stroke-width="1" stroke-linecap="butt" stroke-miterlimit="10" stroke-linejoin="miter" fill="none" stroke="#808080" d="M-4.5-4.5H4.5V4.5H-4.5Z"/>
</g>
<g clip-path="url(#clip_99)">
<path transform="matrix(1,0,0,-1,347.76896,32.003927)" d="M-4.5-4.5H4.5V4.5H-4.5Z" fill="#810f7c"/>
<path transform="matrix(1,0,0,-1,347.76896,32.003927)" stroke-width="1" stroke-linecap="butt" stroke-miterlimit="10" stroke-linejoin="miter" fill="none" stroke="#808080" d="M-4.5-4.5H4.5V4.5H-4.5Z"/>
</g>
<g clip-path="url(#clip_100)">
<path transform="matrix(1,0,0,-1,387.909,32.086278)" d="M-4.5-4.5H4.5V4.5H-4.5Z" fill="#810f7c"/>
<path transform="matrix(1,0,0,-1,387.909,32.086278)" stroke-width="1" stroke-linecap="butt" stroke-miterlimit="10" stroke-linejoin="miter" fill="none" stroke="#808080" d="M-4.5-4.5H4.5V4.5H-4.5Z"/>
</g>
<g clip-path="url(#clip_101)">
<path transform="matrix(1,0,0,-1,456.29689,37.783746)" d="M-4.5-4.5H4.5V4.5H-4.5Z" fill="#810f7c"/>
<path transform="matrix(1,0,0,-1,456.29689,37.783746)" stroke-width="1" stroke-linecap="butt" stroke-miterlimit="10" stroke-linejoin="miter" fill="none" stroke="#808080" d="M-4.5-4.5H4.5V4.5H-4.5Z"/>
</g>
</g>
<g clip-path="url(#clip_102)">
<g clip-path="url(#clip_103)">
<path transform="matrix(1,0,0,-1,387.909,168.66391)" d="M0-4.5 4.5 4.5H-4.5Z" fill="#bfd3e6"/>
<path transform="matrix(1,0,0,-1,387.909,168.66391)" stroke-width="1" stroke-linecap="butt" stroke-miterlimit="10" stroke-linejoin="miter" fill="none" stroke="#808080" d="M0-4.5 4.5 4.5H-4.5Z"/>
</g>
<g clip-path="url(#clip_104)">
<path transform="matrix(1,0,0,-1,456.29689,207.9801)" d="M0-4.5 4.5 4.5H-4.5Z" fill="#bfd3e6"/>
<path transform="matrix(1,0,0,-1,456.29689,207.9801)" stroke-width="1" stroke-linecap="butt" stroke-miterlimit="10" stroke-linejoin="miter" fill="none" stroke="#808080" d="M0-4.5 4.5 4.5H-4.5Z"/>
</g>
<g clip-path="url(#clip_105)">
<path transform="matrix(1,0,0,-1,485.95005,225.8383)" d="M0-4.5 4.5 4.5H-4.5Z" fill="#bfd3e6"/>
<path transform="matrix(1,0,0,-1,485.95005,225.8383)" stroke-width="1" stroke-linecap="butt" stroke-miterlimit="10" stroke-linejoin="miter" fill="none" stroke="#808080" d="M0-4.5 4.5 4.5H-4.5Z"/>
</g>
<g clip-path="url(#clip_106)">
<path transform="matrix(1,0,0,-1,513.22836,249.1835)" d="M0-4.5 4.5 4.5H-4.5Z" fill="#bfd3e6"/>
<path transform="matrix(1,0,0,-1,513.22836,249.1835)" stroke-width="1" stroke-linecap="butt" stroke-miterlimit="10" stroke-linejoin="miter" fill="none" stroke="#808080" d="M0-4.5 4.5 4.5H-4.5Z"/>
</g>
<g clip-path="url(#clip_107)">
<path transform="matrix(1,0,0,-1,538.4841,265.706)" d="M0-4.5 4.5 4.5H-4.5Z" fill="#bfd3e6"/>
<path transform="matrix(1,0,0,-1,538.4841,265.706)" stroke-width="1" stroke-linecap="butt" stroke-miterlimit="10" stroke-linejoin="miter" fill="none" stroke="#808080" d="M0-4.5 4.5 4.5H-4.5Z"/>
</g>
</g>
<g clip-path="url(#clip_108)">
<g clip-path="url(#clip_109)">
<path transform="matrix(1,0,0,-1,387.909,52.89392)" d="M0-4.5 4.5 4.5H-4.5Z" fill="#8c96c6"/>
<path transform="matrix(1,0,0,-1,387.909,52.89392)" stroke-width="1" stroke-linecap="butt" stroke-miterlimit="10" stroke-linejoin="miter" fill="none" stroke="#808080" d="M0-4.5 4.5 4.5H-4.5Z"/>
</g>
<g clip-path="url(#clip_110)">
<path transform="matrix(1,0,0,-1,456.29689,57.437616)" d="M0-4.5 4.5 4.5H-4.5Z" fill="#8c96c6"/>
<path transform="matrix(1,0,0,-1,456.29689,57.437616)" stroke-width="1" stroke-linecap="butt" stroke-miterlimit="10" stroke-linejoin="miter" fill="none" stroke="#808080" d="M0-4.5 4.5 4.5H-4.5Z"/>
</g>
<g clip-path="url(#clip_111)">
<path transform="matrix(1,0,0,-1,485.95005,72.24628)" d="M0-4.5 4.5 4.5H-4.5Z" fill="#8c96c6"/>
<path transform="matrix(1,0,0,-1,485.95005,72.24628)" stroke-width="1" stroke-linecap="butt" stroke-miterlimit="10" stroke-linejoin="miter" fill="none" stroke="#808080" d="M0-4.5 4.5 4.5H-4.5Z"/>
</g>
<g clip-path="url(#clip_112)">
<path transform="matrix(1,0,0,-1,513.22836,86.01426)" d="M0-4.5 4.5 4.5H-4.5Z" fill="#8c96c6"/>
<path transform="matrix(1,0,0,-1,513.22836,86.01426)" stroke-width="1" stroke-linecap="butt" stroke-miterlimit="10" stroke-linejoin="miter" fill="none" stroke="#808080" d="M0-4.5 4.5 4.5H-4.5Z"/>
</g>
<g clip-path="url(#clip_113)">
<path transform="matrix(1,0,0,-1,538.4841,105.59016)" d="M0-4.5 4.5 4.5H-4.5Z" fill="#8c96c6"/>
<path transform="matrix(1,0,0,-1,538.4841,105.59016)" stroke-width="1" stroke-linecap="butt" stroke-miterlimit="10" stroke-linejoin="miter" fill="none" stroke="#808080" d="M0-4.5 4.5 4.5H-4.5Z"/>
</g>
</g>
<g clip-path="url(#clip_114)">
<path transform="matrix(1,0,0,-1,0,352.0204)" d="M513.2283 288.7061 517.7283 297.7061H508.7283Z" fill="#810f7c"/>
<path transform="matrix(1,0,0,-1,0,352.0204)" stroke-width="1" stroke-linecap="butt" stroke-miterlimit="10" stroke-linejoin="miter" fill="none" stroke="#808080" d="M513.2283 288.7061 517.7283 297.7061H508.7283Z"/>
</g>
<path transform="matrix(1,0,0,-1,0,352.0204)" stroke-width=".8" stroke-linecap="square" stroke-miterlimit="10" stroke-linejoin="miter" fill="none" stroke="#000000" d="M90.2 69.93446V344.82038"/>
<path transform="matrix(1,0,0,-1,0,352.0204)" stroke-width=".8" stroke-linecap="square" stroke-miterlimit="10" stroke-linejoin="miter" fill="none" stroke="#000000" d="M559.8309 69.93446V344.82038"/>
<path transform="matrix(1,0,0,-1,0,352.0204)" stroke-width=".8" stroke-linecap="square" stroke-miterlimit="10" stroke-linejoin="miter" fill="none" stroke="#000000" d="M90.2 69.93446H559.8309"/>
<path transform="matrix(1,0,0,-1,0,352.0204)" stroke-width=".8" stroke-linecap="square" stroke-miterlimit="10" stroke-linejoin="miter" fill="none" stroke="#000000" d="M90.2 344.82038H559.8309"/>
<g>
<path transform="matrix(1,0,0,-1,0,352.0204)" d="M98.6 75.93446H448.2C449.8 75.93446 450.6 76.73446 450.6 78.33446V130.00946C450.6 131.60947 449.8 132.40946 448.2 132.40946H98.6C97 132.40946 96.2 131.60947 96.2 130.00946V78.33446C96.2 76.73446 97 75.93446 98.6 75.93446Z" fill="#ffffff" fill-opacity=".8"/>
<path transform="matrix(1,0,0,-1,0,352.0204)" stroke-width="1" stroke-linecap="butt" stroke-miterlimit="10" stroke-linejoin="miter" fill="none" stroke="#000000" stroke-opacity=".8" d="M98.6 75.93446H448.2C449.8 75.93446 450.6 76.73446 450.6 78.33446V130.00946C450.6 131.60947 449.8 132.40946 448.2 132.40946H98.6C97 132.40946 96.2 131.60947 96.2 130.00946V78.33446C96.2 76.73446 97 75.93446 98.6 75.93446Z"/>
</g>
<path transform="matrix(1,0,0,-1,0,352.0204)" d="M113 118.68446C114.060817 118.68446 115.078319 119.10593 115.82843 119.85603 116.57854 120.60614 117 121.62365 117 122.68446 117 123.74527 116.57854 124.76278 115.82843 125.512889 115.078319 126.26299 114.060817 126.68446 113 126.68446 111.939189 126.68446 110.921688 126.26299 110.17157 125.512889 109.42146 124.76278 109 123.74527 109 122.68446 109 121.62365 109.42146 120.60614 110.17157 119.85603 110.921688 119.10593 111.939189 118.68446 113 118.68446Z" fill="#bfd3e6"/>
<path transform="matrix(1,0,0,-1,0,352.0204)" stroke-width="1" stroke-linecap="butt" stroke-linejoin="round" fill="none" stroke="#bfd3e6" d="M113 118.68446C114.060817 118.68446 115.078319 119.10593 115.82843 119.85603 116.57854 120.60614 117 121.62365 117 122.68446 117 123.74527 116.57854 124.76278 115.82843 125.512889 115.078319 126.26299 114.060817 126.68446 113 126.68446 111.939189 126.68446 110.921688 126.26299 110.17157 125.512889 109.42146 124.76278 109 123.74527 109 122.68446 109 121.62365 109.42146 120.60614 110.17157 119.85603 110.921688 119.10593 111.939189 118.68446 113 118.68446Z"/>
<text xml:space="preserve" transform="matrix(1 0 -0 1 134.6 233.53592)" font-size="12" font-family="DejaVuSans"><tspan y="-.09375" x="9.5625 21.955079 29.589844">=10</tspan></text>
<g clip-path="url(#clip_115)">
<path transform="matrix(.012,0,0,-.012,134.6,233.44217)" d="M329 100C337 84 359 76 395 76H438L423 0H369C310 0 270 15 250 47 229 79 226 129 240 198L290 457H84L102 547H606L589 457H382L330 193C320 145 320 114 329 100Z"/>
</g>
<path transform="matrix(1,0,0,-1,0,352.0204)" d="M113 101.05946C114.060817 101.05946 115.078319 101.48093 115.82843 102.23103 116.57854 102.98114 117 103.99865 117 105.05946 117 106.12027 116.57854 107.13778 115.82843 107.887889 115.078319 108.63799 114.060817 109.05946 113 109.05946 111.939189 109.05946 110.921688 108.63799 110.17157 107.887889 109.42146 107.13778 109 106.12027 109 105.05946 109 103.99865 109.42146 102.98114 110.17157 102.23103 110.921688 101.48093 111.939189 101.05946 113 101.05946Z" fill="#8c96c6"/>
<path transform="matrix(1,0,0,-1,0,352.0204)" stroke-width="1" stroke-linecap="butt" stroke-linejoin="round" fill="none" stroke="#8c96c6" d="M113 101.05946C114.060817 101.05946 115.078319 101.48093 115.82843 102.23103 116.57854 102.98114 117 103.99865 117 105.05946 117 106.12027 116.57854 107.13778 115.82843 107.887889 115.078319 108.63799 114.060817 109.05946 113 109.05946 111.939189 109.05946 110.921688 108.63799 110.17157 107.887889 109.42146 107.13778 109 106.12027 109 105.05946 109 103.99865 109.42146 102.98114 110.17157 102.23103 110.921688 101.48093 111.939189 101.05946 113 101.05946Z"/>
<text xml:space="preserve" transform="matrix(1 0 -0 1 134.6 251.16092)" font-size="12" font-family="DejaVuSans"><tspan y="-.09375" x="9.5625 21.955079 29.589844">=50</tspan></text>
<g clip-path="url(#clip_116)">
<path transform="matrix(.012,0,0,-.012,134.6,251.06717)" d="M329 100C337 84 359 76 395 76H438L423 0H369C310 0 270 15 250 47 229 79 226 129 240 198L290 457H84L102 547H606L589 457H382L330 193C320 145 320 114 329 100Z"/>
</g>
<path transform="matrix(1,0,0,-1,0,352.0204)" d="M113 83.43446C114.060817 83.43446 115.078319 83.85593 115.82843 84.60603 116.57854 85.35614 117 86.37365 117 87.43446 117 88.49527 116.57854 89.51278 115.82843 90.262889 115.078319 91.01299 114.060817 91.43446 113 91.43446 111.939189 91.43446 110.921688 91.01299 110.17157 90.262889 109.42146 89.51278 109 88.49527 109 87.43446 109 86.37365 109.42146 85.35614 110.17157 84.60603 110.921688 83.85593 111.939189 83.43446 113 83.43446Z" fill="#810f7c"/>
<path transform="matrix(1,0,0,-1,0,352.0204)" stroke-width="1" stroke-linecap="butt" stroke-linejoin="round" fill="none" stroke="#810f7c" d="M113 83.43446C114.060817 83.43446 115.078319 83.85593 115.82843 84.60603 116.57854 85.35614 117 86.37365 117 87.43446 117 88.49527 116.57854 89.51278 115.82843 90.262889 115.078319 91.01299 114.060817 91.43446 113 91.43446 111.939189 91.43446 110.921688 91.01299 110.17157 90.262889 109.42146 89.51278 109 88.49527 109 87.43446 109 86.37365 109.42146 85.35614 110.17157 84.60603 110.921688 83.85593 111.939189 83.43446 113 83.43446Z"/>
<text xml:space="preserve" transform="matrix(1 0 -0 1 134.6 268.78593)" font-size="12" font-family="DejaVuSans"><tspan y="-.09375" x="9.5625 21.955079 29.589844 37.22461">=100</tspan></text>
<g clip-path="url(#clip_117)">
<path transform="matrix(.012,0,0,-.012,134.6,268.69218)" d="M329 100C337 84 359 76 395 76H438L423 0H369C310 0 270 15 250 47 229 79 226 129 240 198L290 457H84L102 547H606L589 457H382L330 193C320 145 320 114 329 100Z"/>
</g>
<path transform="matrix(1,0,0,-1,0,352.0204)" d="M215.6 118.68446C216.66082 118.68446 217.67832 119.10593 218.42842 119.85603 219.17853 120.60614 219.6 121.62365 219.6 122.68446 219.6 123.74527 219.17853 124.76278 218.42842 125.512889 217.67832 126.26299 216.66082 126.68446 215.6 126.68446 214.53919 126.68446 213.52169 126.26299 212.77158 125.512889 212.02147 124.76278 211.6 123.74527 211.6 122.68446 211.6 121.62365 212.02147 120.60614 212.77158 119.85603 213.52169 119.10593 214.53919 118.68446 215.6 118.68446Z"/>
<path transform="matrix(1,0,0,-1,0,352.0204)" stroke-width="1" stroke-linecap="butt" stroke-linejoin="round" fill="none" stroke="#000000" d="M215.6 118.68446C216.66082 118.68446 217.67832 119.10593 218.42842 119.85603 219.17853 120.60614 219.6 121.62365 219.6 122.68446 219.6 123.74527 219.17853 124.76278 218.42842 125.512889 217.67832 126.26299 216.66082 126.68446 215.6 126.68446 214.53919 126.68446 213.52169 126.26299 212.77158 125.512889 212.02147 124.76278 211.6 123.74527 211.6 122.68446 211.6 121.62365 212.02147 120.60614 212.77158 119.85603 213.52169 119.10593 214.53919 118.68446 215.6 118.68446Z"/>
<text xml:space="preserve" transform="matrix(1 0 -0 1 237.2 233.53592)" font-size="12" font-family="DejaVuSans"><tspan y="-.09375" x="0">N</tspan></text>
<text xml:space="preserve" transform="matrix(1 0 -0 1 237.2 233.53592)" font-size="8.4" font-family="DejaVuSans"><tspan y="1.875" x="8.9765629">f</tspan></text>
<text xml:space="preserve" transform="matrix(1 0 -0 1 237.2 233.53592)" font-size="12" font-family="DejaVuSans"><tspan y="-.09375" x="14.599805 26.992383 34.627149">=16</tspan></text>
<path transform="matrix(1,0,0,-1,0,352.0204)" d="M211.6 101.05946H219.6V109.05946H211.6Z"/>
<path transform="matrix(1,0,0,-1,0,352.0204)" stroke-width="1" stroke-linecap="butt" stroke-miterlimit="10" stroke-linejoin="miter" fill="none" stroke="#000000" d="M211.6 101.05946H219.6V109.05946H211.6Z"/>
<text xml:space="preserve" transform="matrix(1 0 -0 1 237.2 251.16092)" font-size="12" font-family="DejaVuSans"><tspan y="-.09375" x="0">N</tspan></text>
<text xml:space="preserve" transform="matrix(1 0 -0 1 237.2 251.16092)" font-size="8.4" font-family="DejaVuSans"><tspan y="1.875" x="8.9765629">f</tspan></text>
<text xml:space="preserve" transform="matrix(1 0 -0 1 237.2 251.16092)" font-size="12" font-family="DejaVuSans"><tspan y="-.09375" x="14.599805 26.992383 34.627149">=24</tspan></text>
<path transform="matrix(1,0,0,-1,0,352.0204)" d="M316.2 118.68446 320.2 126.68446H312.2Z"/>
<path transform="matrix(1,0,0,-1,0,352.0204)" stroke-width="1" stroke-linecap="butt" stroke-miterlimit="10" stroke-linejoin="miter" fill="none" stroke="#000000" d="M316.2 118.68446 320.2 126.68446H312.2Z"/>
<text xml:space="preserve" transform="matrix(1 0 -0 1 337.8 233.53592)" font-size="12" font-family="DejaVuSans"><tspan y="-.09375" x="0">N</tspan></text>
<text xml:space="preserve" transform="matrix(1 0 -0 1 337.8 233.53592)" font-size="8.4" font-family="DejaVuSans"><tspan y="1.875" x="8.9765629">f</tspan></text>
<text xml:space="preserve" transform="matrix(1 0 -0 1 337.8 233.53592)" font-size="12" font-family="DejaVuSans"><tspan y="-.09375" x="14.599805 26.992383 34.627149">=32</tspan></text>
<path transform="matrix(1,0,0,-1,0,352.0204)" stroke-width="2" stroke-linecap="square" stroke-linejoin="round" fill="none" stroke="#ff7f0e" d="M304.2 104.68446H316.2 328.2"/>
<text xml:space="preserve" transform="matrix(1 0 -0 1 337.8 251.53592)" font-size="12" font-family="DejaVuSans"><tspan y="-.01875" x="0 7.6347658 11.449219 19.083985">0.90</tspan></text>
<text xml:space="preserve" transform="matrix(1 0 -0 1 337.8 251.53592)" font-size="12" font-family="DejaVuSans"><tspan y="-.01875" x="26.71875">e</tspan></text>
<text xml:space="preserve" transform="matrix(1 0 -0 1 337.8 251.53592)" font-size="8.4" font-family="DejaVuSans"><tspan y="-4.6125" x="41.697656 47.041994 49.71211 55.056447">0.35</tspan></text>
<text xml:space="preserve" transform="matrix(1 0 -0 1 337.8 251.53592)" font-size="8.4" font-family="DejaVuSans"><tspan y="-4.6125" x="60.400785">d</tspan></text>
<text xml:space="preserve" transform="matrix(1 0 -0 1 337.8 251.53592)" font-size="12" font-family="DejaVuSans"><tspan y="-.01875019" x="80.79141 88.42618 92.24063 99.8754">0.03</tspan></text>
<g clip-path="url(#clip_118)">
<path transform="matrix(.0084,0,0,-.0084,372.45936,246.92342)" d="M106 355H732V272H106V355Z"/>
</g>
<g clip-path="url(#clip_119)">
<path transform="matrix(.012,0,0,-.012,406.19883,251.51717)" d="M106 355H732V272H106V355Z"/>
</g>
</svg>
